<?xml version="1.0" encoding="UTF-8"?>
<svg id="Layer_1" data-name="Layer 1" xmlns="http://www.w3.org/2000/svg" viewBox="0 0 148.79 70.38">
  <defs>
    <style>
      .cls-1 {
        fill: #e69131;
      }

      .cls-2 {
        fill: #563919;
      }

      .cls-3 {
        fill: #e4913e;
      }

      .cls-4 {
        fill: #43300c;
      }

      .cls-5 {
        fill: #e89545;
      }

      .cls-6 {
        fill: #cfcac0;
      }

      .cls-7 {
        fill: #eb9434;
      }

      .cls-8 {
        fill: #e08d37;
      }

      .cls-9 {
        fill: #e3ded7;
      }

      .cls-10 {
        fill: #efeae2;
      }

      .cls-11 {
        fill: #b27120;
      }

      .cls-12 {
        fill: #d2832b;
      }

      .cls-13 {
        fill: #cf802a;
      }

      .cls-14 {
        fill: #b27024;
      }

      .cls-15 {
        fill: #ea9437;
      }

      .cls-16 {
        fill: #553c1d;
      }

      .cls-17 {
        fill: #c67a26;
      }

      .cls-18 {
        fill: #cabfac;
      }

      .cls-19 {
        fill: #ed994a;
      }

      .cls-20 {
        fill: #fdfefa;
      }

      .cls-21 {
        fill: #74532b;
      }

      .cls-22 {
        fill: #dc8932;
      }

      .cls-23 {
        fill: #bf7625;
      }

      .cls-24 {
        fill: #b4722c;
      }
    </style>
  </defs>
  <path class="cls-1" d="M105.26,22.93c.56.68.73,2.27.82,3.07-.73-.13-1.31-.63-1.85-1.22l-3.42-3.74c-.03,1.34.06,2.29.19,3.36-.88.3-2.29,1.19-3.04,1.6-.44-.75-.48-1.6-.61-2.57l-.64-4.92c-.03-.22-.28-.67-.46-.71-.21-.04-.61,0-.93.03l-8.99,1.05c-.73.09-1.41.08-1.82.61-.09.01-.28.06-.36.03-1.19-.47-8.73,2-11.75,2.43-5.53.78-10.98,1.24-16.44,1.65l.15-4.5c.02-.52.01-.94-.4-1.18,5.22-.61,10.48-.92,15.75-1.96l9.83-1.94c1.58-.31,2.87-.38,4.48-.36l9.98.1,5.22,5.18c1.41,1.4,3.07,2.48,4.31,3.99Z"/>
  <path class="cls-6" d="M.95,22.6c-.14.26-.33.65-.43.9-.2.54,3.12,2.84,3.25,2.91,2.56,1.29,5.46,1.54,8.48,1.21-1.37-1.95-3.02-3.35-4.16-4.86.75.07,2.21.14,3.02.16h.54c2.42.07,4.68.8,6.77,2.03-1.01.32-1.56-.89-2.84-.39,2.08,1.72,3.03,4.31,5.33,5.7,2.61,1.58,7.08,2.05,9.66,3.32.19.09.49-.56.38-.48,1.57,1.26,3.43,2.02,5.28,3.05l14.21,7.91c-2.82.31-5.64-.95-8.84-.64l8.86,2.66,3.67,3.3-.91,2.96-5.64-2.79c-2.45-1.21-3.86-3.87-6.07-5.31-2.63-1.71-5.09-3.92-8.09-5.08l-13.5-5.21c-2.74-1.06-4.73-3.47-7.48-4.44-2.09-.74-4.72.28-6.75-.84-1.86-1.04-3.61-2.28-5.4-3.54-.65-.46-.15-2.5.66-2.54Z"/>
  <path class="cls-7" d="M55.69,17.92c.41.23.42.66.4,1.18l-.15,4.5-13.01-2.83-12.54-2.45c-2.19-1.51-2.62-3.91-4.26-4.67.06-.38.44-1.04.54-1.43h.24c.82.86,3.08,1.63,4.4,1.74,6.06.51,11.81.89,17.76,1.94,2.31.41,4.47,1.39,6.61,2.03Z"/>
  <path class="cls-20" d="M136.04,28.4l.45.23c3.77-.19,5.57.61,9.29.37l.45.23.76.38s-.27.29-.17.32l.41.12c.1.36.23,1.08.37,1.45.03.4.21.83.44,1.18l.41,1.45c-.32.2-.69.44-1.02.61l-9.59,4.89-.31-.06c-.01-.11-.04-.32-.05-.42,0-.15,0-.43,0-.59l.02-1.02v-.78s0-1.05,0-1.05v-.77s0-.84,0-.84v-.78c0-.29-.17-.86-.36-.9v-.16c.14-.05.32-.18.21-.21l-.66-.2-10.25-3.3c-.15-.05-.02-.52.1-.5,1.98-.08,3.81.04,5.92.31.96.12,2.71.04,3.59.04Z"/>
  <path class="cls-2" d="M77.21,45.28c.18,0,.38.03.38-.1v-.37c-.02-.1.03-.3.06-.4l.58.03c-.15.45-.41,1.24-.59,1.63-.18.01-.34,0-.34.11v.36s-.02.35-.02.35c-.26.46-.46.97-.6,1.48v.34c-.49.58-.9,1.92-.51,2.41-.26.43-.68.75-1.18,1.03l-6.87,4c.13-.42-1.98-.61-2.24-1.56.42-.16.71-1.13,1.07-1.39.39-.28,1.1-.62,1.25-1.06.17-.5-.42-.99-.7-1.43-1.31-2.03-2.48-4.06-3.62-6.1l1.96,1.04.6.27c.88.97,1.94,1.57,3.38,2.31.03-.7-.01-1.2-.1-1.76.34.52.88,1.58,1.25,2.42,1.29-.23,1.32-2.73,1.37-3.81l.03-.62c0-.06,0-.18,0-.25,0-.1-.02-.26-.01-.35l.04-1.23c.15-.28.28-.69.37-1.03,0,.11.05.33.06.44l.04,1.03.5-1.04,3.39-6.68-1.56,13.41c.84-1.19,1.44-2.32,2.01-3.49Z"/>
  <path class="cls-11" d="M122.29,41.72l.61.34.04,4,12.34-2.49.24.06.73.83-11.16,2.35c-1.5.32-2.37.17-3.52-.27l-17.84-6.79-1.71-10.08c.79.04,1.94,7.31,2.66,8.75l17.63,3.31Z"/>
  <path class="cls-15" d="M123.73,27.83l1.16.6c.54.65,1.51,1.04,2.3.79l1.35.43.47.18.76.22.04.31c0,.07.09.05.15.02s.19-.13.26-.13c.09,0,.26.01.34.03.28.2.53.45.67.83l-8.85-1.9.27,2.81-1.78-.14c-.37-.29-.84-.54-1.37-.69l-11.61-3.4c-.75-.22-1.27-.69-1.84-.96.01-.22.05-.62.02-.83-.08-.79-.26-2.39-.82-3.07,5.03,1.13,14.33,2.74,18.48,4.9Z"/>
  <path class="cls-16" d="M47.65,51.14c.49-.03,1.21.3,1.86.18.52-.1,3.05.37,2.58,1.9-1.31.16-2.45.78-3.72,1.34l-7.26,3.19c.7.03,1.72.27,2.21.13-.36,3.5.26,3.02.06,6.73l-5.91-5.08c.05-.33.3-1.09.04-1.29l-1.1-.85c1.03-.23,2.21.12,3.16-.26,2.06-.83,2.99-4.83,4.23-5.26s2.61-.64,3.86-.72Z"/>
  <path class="cls-24" d="M65.84,45.68l-1.96-1.04-.46-.02c-.77-.03-1.59.32-1.77,1.09-.71-.17-1.53-.08-2.27-.02l-8.92-1.63-14.21-7.91c-1.85-1.03-3.72-1.79-5.28-3.05l-.78-.63-.63-.41s-.14-.03-.18-.04c-.26-.54-1.11-1.19-1.61-1.39-.04-.02-.12-.01-.18,0,0-.07-.07-.24-.17-.28l-.29-.12c-.49-.48-1.02-.9-1.64-1.23l-.63-.93,23.32,13.4,13.93,2.57c1.48.27,3.05.27,3.74,1.64Z"/>
  <path class="cls-4" d="M91.04,45.68c-3.36,1.77-10.12,4.83-13.64,6.3-1.89.79-3,1.84-4.43,2.6l-1.75.94c.75.77,1.22,2.23,2.31,2.62l6.54,2.36c.15.43.45.78.56,1.44-9.28-2.86-3.74-.25-10.73-5.51l-5.56,3.53c-.32.2-.79.4-1.1.4-.28,0-.59-.57-.85-.66,2.05-1.95,3.37-2.15,5.75-3.54l6.87-4c.49-.29.92-.61,1.18-1.03l1.24-2.07.81-.12c1.32-.19,2.56-.57,3.91-1.02l5.72-1.89c1.04-.34,2.31-.85,3.19-.36Z"/>
  <path class="cls-12" d="M18.03,16.87c.12.41-2.59,5.75-3.11,5.86-1.11.22-2.31-.05-3.26.21h-.54c0-.2,0-.33-.12-.33l-.55-.03c-.36-.02-1.11-.16-1.31-.41-.42-.51.92-2.25.51-3.43,2.26-2.19,4.72-4.2,7.12-6.28l1.26,4.42Z"/>
  <path class="cls-23" d="M97.35,26.5c.84.18,3.63,1.12,3.63,2.18-1.27.96-4.12,2.5-5.26,3.61-.08.08-.2.26-.27.36-.09.03-.28-.01-.37-.01-.16,0-.37,0-.42.13l-.21.46c-.1.02-.27.05-.37.06l-.55.03c-.12,0-.1.21-.09.38-.23.15-.71.42-.97.47-.99.19-2.69,1.21-3.67,1.73l-4.95,2.62c-.82.43-1.55.88-2.39,1.05.32-.6.84-.96,1.44-1.45,4.63-3.81,9.48-7.31,13.83-11.29.16-.06.47-.23.62-.33Z"/>
  <path class="cls-10" d="M6.83,21.91c-.03.17-.09.43.05.42.09,0,.32-.02.41.01.22.07.58.4.81.42,1.14,1.5,2.79,2.91,4.16,4.86-3.03.33-5.93.08-8.48-1.21-.13-.07-3.44-2.36-3.25-2.91.09-.26.29-.65.43-.9.12,0,.33-.01.44-.03,1.01-.14,2.91-.88,3.83-1.31.4-.19,1.28.35,1.6.65Z"/>
  <path class="cls-14" d="M92.47,34.17c-1.48,1.58-3.54,2.34-5.92,4.19-.21.17-.95.23-.94.5s.3.77.51.96l.44.41c.05.05.12.14.18.17-.04,1.65,4.34,5.11,1.51,4.92-2.03-.13-3.37-1.45-4.78-2.67.35-1.17,1.07-2.05,1.74-3.49l-4.68,2.71-.99-1.07,1.92-1.21c.84-.17,1.57-.62,2.39-1.05l4.95-2.62c.98-.52,2.68-1.53,3.67-1.73Z"/>
  <path class="cls-1" d="M19.72,6.33l.13.18.56.41.41.41.2.2.41.41.2.2.41.41.2.2c.06.12.17.33.25.42l1.56,1.85c.53.63,1.79,1.1,2.44.95l.19.25c-.09.4-.48,1.06-.54,1.43-.25,1.56-.73,4.49-.85,6.49-.12-.1-.34-.31-.4-.44-1.37-3.3-3.88-9.78-5.51-13.21.04-.09.07-.29.06-.39l.28.24Z"/>
  <path class="cls-2" d="M72.97,54.58c-.03.31.36,1.53.78,1.44,1.55-.33,3.02-.78,4.37-1.17l1.94,5.65-6.54-2.36c-1.09-.39-1.56-1.85-2.31-2.62l1.75-.94Z"/>
  <path class="cls-16" d="M68.12,56.17c-2.38,1.39-3.7,1.59-5.75,3.54-1.13-.35-2.85-1.95-3.44-3.18,2.42-.68,4.8-1.07,6.95-1.91.26.95,2.37,1.13,2.24,1.56Z"/>
  <path class="cls-4" d="M63.88,44.64c1.14,2.04,2.3,4.07,3.62,6.1.28.43.86.93.7,1.43-.15.44-.86.78-1.25,1.06-1.23-.97-2.16-2.18-2.99-3.58l-2.31-3.93c.51.13,1.43-.8,1.77-1.09l.46.02Z"/>
  <path class="cls-18" d="M136.71,44.22v-.95c.32-.91.58-1.88.6-2.84v-.6c.05-.01.25-.16.24-.24l.31.06c-.16.98-.28,1.9-.14,3.15l8.55-6.8c.49-.39.91-.75,1.18-1.24.33-.17.7-.41,1.02-.61.06.21.49.72.26.91l-10.02,8.16c-.54.44-1.46.93-2,1.01Z"/>
  <path class="cls-9" d="M50.45,44.06l8.92,1.63c-1.11.08-2.3,0-3.42.01-.12,0-.36.04-.47,0-1.18-.44-3.78.75-5.02.38l-8.86-2.66c3.2-.31,6.02.95,8.84.64Z"/>
  <path class="cls-4" d="M52.08,53.22s0,.08,0,.12c-1.5,1.24-2.82,2.7-4.56,3.77-.99.61-3.19.48-4.21.76-.49.14-1.51-.09-2.21-.13l7.26-3.19c1.27-.56,2.41-1.17,3.72-1.34Z"/>
  <path class="cls-18" d="M19.43,5.7l.02.39c0,.1-.03.3-.06.39l-.19.44-.66,9.94h-.5s-1.26-4.42-1.26-4.42c.32-.28.59-.85.76-1.45l1.27-4.47c.07-.25.44-.63.63-.82Z"/>
  <path class="cls-8" d="M55.49,45.7l.44.4v3.25s-1.79.02-1.79.02l-3.67-3.3c1.24.37,3.84-.81,5.02-.38Z"/>
  <path class="cls-24" d="M54.14,49.38l1.78-.02c0,.75-.44,1.16-1.11,1.71l-2.73,2.26s0-.09,0-.12c.47-1.53-2.06-2-2.58-1.9-.65.12-1.36-.21-1.86-.18-.16-.62-1.1-.73-1.51-1.17-1.71-1.81-3.26-3.73-4.62-5.72,2.21,1.44,3.62,4.1,6.07,5.31l5.64,2.79.91-2.96Z"/>
  <path class="cls-21" d="M90.99,44.08l.02.17.23.22.45.81c.1.18-.46.3-.65.4-.88-.48-2.16.02-3.19.36-.39-.95-1.81-.38-2.46-1.18-.48-1.18-1.64-.89-2.63-1.87.19-.06.53-.26.73-.36,1.41,1.22,2.75,2.53,4.78,2.67,2.83.19-1.56-3.27-1.51-4.92,1.29.58,3.28,2.48,4.25,3.7Z"/>
  <path class="cls-8" d="M11.12,22.93c-.81-.02-2.27-.09-3.02-.16-.23-.02-.59-.35-.81-.42l-.46-.43c-.32-.3-1.21-.84-1.6-.65v-.29c1.28-.99,3.25-1.09,4.43-2.24.4,1.19-.93,2.92-.51,3.43.2.25.96.39,1.31.41l.55.03c.13,0,.12.13.12.32Z"/>
  <path class="cls-4" d="M43.37,64.6c-.01.22.08.72.05.89l-4.3-2.83c-.98-.64-1.8-2.23-1.65-3.14l5.91,5.08Z"/>
  <path class="cls-8" d="M86.56,38.35l3.18,3.14c.72.71,1.15,1.67,1.26,2.59-.96-1.22-2.96-3.12-4.25-3.7-.05-.02-.13-.12-.18-.17l-.44-.41c-.2-.19-.49-.69-.51-.96s.72-.33.94-.5Z"/>
  <path class="cls-9" d="M125.31,27.82c-.08.24.26.49.52.47.17-.01.34-.27.33-.42.11,0,.29.14.38.19-.12-.02-.25.45-.1.5l10.25,3.3.66.2c.11.03-.07.16-.2.21-.39-.06-1.09-.22-1.46-.17-1.28-.74-3.79-1.49-5.11-1.82-.08-.02-.26-.04-.34-.03-.12-.06-.33-.16-.45-.19l-.76-.22-.47-.18-1.35-.43-2.3-.79-1.16-.6c.52-.03,1.06-.04,1.57-.01Z"/>
  <path class="cls-18" d="M102,29.66c-.54-.03-1.25.25-1.9.59l-4.21,2.21-.17-.17c1.14-1.11,3.99-2.65,5.26-3.61.17-.13.6-.22.82-.29l.2,1.27Z"/>
  <path class="cls-6" d="M5.22,20.97v.29c-.91.44-2.81,1.18-3.82,1.31,1.19-.69,2.49-1.3,3.82-1.6Z"/>
  <path class="cls-17" d="M136.71,43.27v.95c-.13.02-.34.21-.46.24l-.73-.83,1.19-.36Z"/>
  <path class="cls-9" d="M148.05,32.7c-.23-.36-.41-.79-.44-1.18l.44,1.18Z"/>
  <path class="cls-20" d="M126.15,27.86c.01.15-.16.41-.33.42-.26.02-.59-.23-.52-.47l.84.04Z"/>
  <path class="cls-14" d="M95.08,32.64l-.63.59.21-.46c.05-.12.27-.13.42-.13Z"/>
  <path class="cls-24" d="M19.43,5.7c-.19.2-.56.57-.63.82v-.92c0-.2.62-.11.63.09Z"/>
  <path class="cls-14" d="M94.09,33.28l-.64.41c0-.18-.03-.38.09-.38l.55-.03Z"/>
  <path class="cls-9" d="M147.23,30.07l-.41-.12c-.1-.03.13-.3.17-.32.07.12.2.33.24.45Z"/>
  <path class="cls-24" d="M55.96,45.7c0,.11-.03.3-.03.4l-.44-.4c.11.04.35,0,.47,0Z"/>
  <path class="cls-9" d="M146.23,29.25l-.45-.23.45.23Z"/>
  <path class="cls-11" d="M26.92,12.21h-.24s-.19-.24-.19-.24c.08-.02.2-.17.28-.24.24-.24.03.34.16.48Z"/>
  <path class="cls-9" d="M136.49,28.64l-.45-.23c.07,0,.2-.1.26-.14.06-.03.14-.02.15.06l.04.31Z"/>
  <path class="cls-11" d="M21.43,7.94l-.41-.41.41.41Z"/>
  <path class="cls-11" d="M22.04,8.55l-.41-.41.41.41Z"/>
  <path class="cls-11" d="M20.82,7.33l-.41-.41c.12.09.3.3.41.41Z"/>
  <path class="cls-11" d="M22.49,9.17c-.08-.09-.18-.31-.25-.42l.4.14c.09.03-.11.24-.16.28Z"/>
  <path class="cls-24" d="M95.9,32.46c-.11.06-.33.15-.44.19.07-.1.19-.28.27-.36l.17.17Z"/>
  <path class="cls-18" d="M19.85,6.52l-.13-.18.13.18Z"/>
  <path class="cls-8" d="M91.24,44.47l-.23-.22c.06.05.19.15.23.22Z"/>
  <path class="cls-8" d="M97.95,26c-.17.09-.43.39-.59.5-.14.1-.45.27-.62.33l-19.38,7.58c-2.42-2.08-3.04-4.73-4.98-6.78-.28-.29-.73-.59-1.13-.83-.07.57-.22,1.25-.12,1.6l-16.2-.11c-1.82-.01-3.58-.33-5.28-.49-1.41-.13-2.79-.53-4.37-.55-.63,0-1.65-.25-2.13-.48l-.22-6.01,13.01,2.83c5.46-.41,10.92-.87,16.44-1.65,3.02-.43,10.56-2.9,11.75-2.43l2.9,6.26c3.03.21,6.58.77,9.67.26-4.17-2.72-8.39-4.15-12.21-6.55.41-.53,1.09-.52,1.82-.61l8.99-1.05c.32-.04.72-.08.93-.03.18.04.43.49.46.71l.64,4.92c.13.97.17,1.82.61,2.57Z"/>
  <path class="cls-17" d="M100.99,24.4l.42.33c1.02,2.18,2.32,4.25,3.5,6.44.46.85.81,1.31,1.53,1.71l15.86,8.85-17.63-3.31c-.72-1.45-1.87-8.71-2.66-8.75l-.2-1.27c-.22.07-.65.16-.82.29,0-1.06-2.79-2-3.63-2.18.16-.11.42-.41.59-.5.76-.41,2.17-1.31,3.04-1.6Z"/>
  <path class="cls-5" d="M84.5,19.48c3.82,2.4,8.04,3.84,12.21,6.55-3.09.51-6.64-.05-9.67-.26l-2.9-6.26c.08.03.27-.02.36-.03Z"/>
  <path class="cls-19" d="M106.07,25.99c.02.21-.01.61-.02.83-1.56-.71-3.07-1.49-4.64-2.1l-.42-.33c-.12-1.07-.22-2.02-.19-3.36l3.42,3.74c.54.59,1.12,1.09,1.85,1.22Z"/>
  <path class="cls-9" d="M18.43,24.96c.16.06.42.15.57.22l.36.65c.07.13.52-.19.5-.26.14.07.42.18.57.22l-.07.33,2.27.65.49.44c.56.51,1.57,1.6,2.38,1.8.61.33,1.15.74,1.64,1.23.12.12.32.29.45.4.06,0,.14,0,.18,0,.26.54,1.11,1.2,1.61,1.39.04.02.14.02.18.04.05.13.48.29.63.41l.78.63c.1-.07-.19.58-.38.48-2.58-1.27-7.05-1.74-9.66-3.32-2.3-1.39-3.25-3.99-5.33-5.7,1.28-.5,1.83.71,2.84.39Z"/>
  <path class="cls-8" d="M18.53,16.87c0,.14.03.42.05.56.13.83.48,1.6.85,2.44l2.78,6.36-1.8-.45c-.15-.04-.42-.15-.57-.22l-.85-.39c-.14-.07-.41-.16-.57-.22-2.09-1.23-4.35-1.96-6.77-2.02.95-.26,2.15.01,3.26-.21.52-.1,3.23-5.45,3.11-5.86h.5Z"/>
  <path class="cls-19" d="M30.4,18.32l11.75,8.1.02.15c-7.03-1.82-11.21-1.74-16.87-6.43.12-2,.6-4.93.85-6.49,1.64.76,2.07,3.16,4.26,4.67Z"/>
  <path class="cls-22" d="M42.93,20.77l.22,6.01c-.05-.03-.19,0-.25-.02-.2-.09-.59-.22-.76-.34l-11.75-8.1,12.54,2.45Z"/>
  <path class="cls-3" d="M135.68,32.09c.36-.05,1.07.12,1.46.17v.16s-.02.59-.02.59c0,.17.19.32.38.31v.78c-.22-.08-.5.31-.46.52.03.16.32.35.46.33v.77c-.19-.12-.54.3-.53.52s.35.65.54.53v.78c-.08.01-.29.36-.3.52s.19.5.3.5c0,.16,0,.44,0,.59l-.47.23c-1.11-.37-2.09-1.04-3.22-1.6l-9.19-4.61c-.59-.3-1.07-.6-1.39-1.08,1.7-.31,7.55.63,12.46,0Z"/>
  <path class="cls-9" d="M147.45,34.75c-.26.49-.68.84-1.18,1.24l-8.55,6.8c-.14-1.25-.03-2.18.14-3.15l9.59-4.89Z"/>
  <path class="cls-19" d="M137.5,37.55l-.02,1.02c-.11,0-.31-.34-.3-.5s.23-.51.31-.52Z"/>
  <path class="cls-19" d="M137.5,35.72v1.05c-.19.12-.53-.3-.54-.53s.35-.65.54-.52Z"/>
  <path class="cls-19" d="M137.5,34.1v.84c-.14.02-.43-.16-.46-.33-.04-.21.24-.59.46-.52Z"/>
  <path class="cls-19" d="M137.5,33.32c-.19.01-.39-.14-.38-.31l.02-.59c.19.04.36.6.36.9Z"/>
  <path class="cls-19" d="M137.49,39.16c0,.11.04.32.05.42,0,.08-.19.22-.23.24l-.29-.43.47-.23Z"/>
  <path class="cls-12" d="M24.89,19.69c.06.14.29.35.4.44,5.66,4.68,9.84,4.6,16.87,6.43l.74.19c.06.02.19,0,.25.02.48.23,1.5.47,2.13.48,1.58.02,2.96.42,4.37.55,2.3,2.39,4.92,4.46,7.45,6.76l2.93.55-.02.26c.32.51.75,1.05,1.25,1.51,3.81,3.45,4.62,5.97,7.67,9.62l.48,1.04c-1.16-.64-1.98-1.16-2.97-1.6l-.6-.27c-.69-1.38-2.26-1.37-3.74-1.64l-13.93-2.57-23.32-13.4-1.18-.63c-.23-.4-.83-.99-1.22-1.17-.06-.03-.18-.02-.25-.03l-2.78-6.36c-.37-.84-.71-1.61-.85-2.44,1-.28,6.95,3.86,6.31,2.26Z"/>
  <path class="cls-17" d="M96.74,26.84c-4.36,3.98-9.2,7.47-13.83,11.29-.6.49-1.12.85-1.44,1.45l-1.92,1.21.99,1.07c-.14.54-.43,1.5-.61,1.99-.04.11-.17.31-.25.4-.24.27-.55.87-.59,1.26,0,.05,0,.14-.01.18-.08.05-.22.13-.28.19-.28.29-.71.99-.86,1.43-.25.73-.91.97-1.27,1.41v-.34c.55-.04.59-1.05.61-1.48l.02-.35c.08-.06.28-.34.34-.47.18-.4.44-1.19.59-1.63.19-.55.7-1.05.52-1.79-.39.41-.92,1.28-1.1,1.76-.04.09-.08.3-.07.4-.09.05-.29.32-.37.47-.58,1.17-1.17,2.3-2.01,3.49l1.56-13.41-3.39,6.68h-.54c0-.1-.06-.31-.06-.42l-.09-8.38c-.02-2.18-.37-3.71-.3-5.6,1.94,2.05,2.55,4.7,4.98,6.78l19.38-7.58Z"/>
  <path class="cls-14" d="M72.38,27.63c-.07,1.89.28,3.42.3,5.6l.09,8.38c-.09.35-.22.75-.37,1.03,0-.14-.13-.42-.1-.56.16-.88.02-2.64-.51-3.52-2.64-.55-5.04-1.07-7.54-1.38-1.35-.17-2.62-1.13-3.72-1.86.5-.13,1.48.04,2.1.19l9.43,2.36-.67-8.24c-.04-.43-.13-.83-.25-1.25-.1-.35.05-1.03.12-1.6.4.24.85.53,1.13.83Z"/>
  <path class="cls-9" d="M72.3,42.1c-.02.14.1.41.1.56l-.04,1.23-3.46.38c-.74-1.36-1.4-2.76-2.23-4.05,0-.14.03-.43-.02-.55l5.65,2.44Z"/>
  <path class="cls-24" d="M68.9,44.26c.13.25.33.6.44.84.16.33.18,1.09.38,1.39.09.56.13,1.07.1,1.76-1.45-.74-2.5-1.34-3.38-2.31.99.44,1.81.96,2.97,1.6l-.48-1.04c0-1.91-2.32-4.49-2.26-6.3.83,1.29,1.49,2.7,2.23,4.05Z"/>
  <path class="cls-6" d="M72.36,43.88c0,.09,0,.26.01.35v.25s-.03.62-.03.62h-3c-.12-.24-.31-.6-.44-.84l3.46-.38Z"/>
  <path class="cls-21" d="M78.8,45.88l.05.42-.18.6-.2.39v.18c-.61.29-.95.92-1.07,1.6l-1.24,2.07c-.39-.49.02-1.83.5-2.41.36-.44,1.02-.68,1.27-1.41.15-.44.58-1.14.86-1.43Z"/>
  <path class="cls-21" d="M78.23,44.45l-.58-.03c.18-.48.71-1.35,1.1-1.76.17.73-.34,1.24-.52,1.79Z"/>
  <path class="cls-21" d="M76.68,48.38c.14-.52.34-1.02.6-1.48-.02.43-.06,1.44-.6,1.48Z"/>
  <polygon class="cls-14" points="73.36 42.04 72.87 43.09 72.83 42.06 73.36 42.04"/>
  <path class="cls-21" d="M77.64,46.08c-.06.13-.26.41-.34.47v-.36c0-.12.17-.1.34-.11Z"/>
  <path class="cls-21" d="M77.58,44.82v.37c.02.13-.19.1-.37.1.07-.15.27-.41.37-.47Z"/>
  <path class="cls-14" d="M72.38,44.48v-.25c0,.07,0,.19,0,.25Z"/>
  <path class="cls-22" d="M122.66,32.01c.14.01.43.12.57.09.32.48.8.79,1.39,1.08l9.19,4.61c1.13.57,2.1,1.23,3.22,1.6l.29.43v.6c-.37-.34-.97-.51-1.55-.43l-10.52,1.52.06.27c-.46-.4-1.89.14-2.39.26l-.61-.34-15.86-8.85c1.51-.66,3.32-.06,5.09-.29,2.25-.29,4.42-.35,6.71-.26.97.04,1.89-.01,2.64-.44l1.78.14Z"/>
  <path class="cls-17" d="M125.3,41.8c.5.44.52.59,1.42.65l7.37.56c.55.04.98.14,1.2.56l-12.34,2.49-.04-4c.5-.11,1.93-.66,2.39-.26Z"/>
  <path class="cls-23" d="M137.3,40.43c-.01.97-.27,1.93-.59,2.84l-1.19.36-.24-.06c-.22-.41-.66-.51-1.2-.56l-7.37-.56c-.9-.07-.91-.21-1.42-.65l-.06-.27,10.52-1.52c.58-.08,1.18.09,1.54.43Z"/>
  <path class="cls-8" d="M106.05,26.83c.58.26,1.09.74,1.84.96l11.61,3.4c.53.16,1,.4,1.37.69-.75.43-1.67.48-2.64.44-2.29-.09-4.46-.03-6.71.26-1.77.23-3.58-.37-5.09.29-.72-.4-1.07-.86-1.53-1.71-1.18-2.18-2.48-4.26-3.5-6.44,1.57.6,3.09,1.39,4.64,2.1Z"/>
  <path class="cls-19" d="M130.57,30.27c1.32.33,3.83,1.08,5.11,1.82-4.91.63-10.76-.31-12.46,0-.14.03-.42-.08-.57-.09l-.27-2.81,8.85,1.9c-.15-.38-.39-.63-.67-.83Z"/>
  <path class="cls-19" d="M127.19,29.22c-.79.25-1.76-.14-2.3-.79l2.3.79Z"/>
  <path class="cls-19" d="M130.23,30.24c-.07,0-.2.1-.26.13s-.15.05-.15-.02l-.04-.31c.12.03.33.14.45.19Z"/>
  <path class="cls-19" d="M129.01,29.82l-.47-.18.47.18Z"/>
  <path class="cls-2" d="M63.42,44.63c-.35.29-1.26,1.21-1.77,1.09.19-.77,1-1.12,1.77-1.09Z"/>
  <path class="cls-6" d="M23.68,27.43l1.18.63.63.93c-.81-.2-1.83-1.29-2.38-1.8.16.06.44.16.58.23Z"/>
  <path class="cls-6" d="M29.37,32.03c-.51-.2-1.35-.85-1.61-1.39.5.2,1.35.86,1.61,1.39Z"/>
  <path class="cls-6" d="M30.18,32.48c-.15-.12-.58-.28-.63-.41l.63.41Z"/>
  <path class="cls-6" d="M27.57,30.63c-.13-.12-.34-.29-.45-.4l.29.12c.1.04.17.21.17.28Z"/>
  <path class="cls-16" d="M87.84,46.05l-5.72,1.89c-1.35.44-2.59.83-3.91,1.02l.27-1.48c.76.07,1.59-.04,2.34-.4l4.56-2.21c.65.8,2.07.23,2.46,1.18Z"/>
  <path class="cls-2" d="M78.48,47.47l-.27,1.48-.81.12c.12-.68.46-1.31,1.08-1.6Z"/>
  <path class="cls-6" d="M7.29,22.34c-.09-.03-.32-.02-.41-.01-.14,0-.08-.24-.05-.42l.46.43Z"/>
  <path class="cls-9" d="M83.48,42.64c-.19.1-.53.3-.73.36l-2.82.85c.18-.49.47-1.45.61-1.99l4.68-2.71c-.67,1.45-1.39,2.32-1.74,3.49Z"/>
  <path class="cls-21" d="M86.57,40.22l-.44-.41.44.41Z"/>
  <path class="cls-17" d="M24.89,19.69c.64,1.6-5.31-2.54-6.31-2.26-.02-.14-.06-.42-.05-.56l.66-9.94c0-.12.15-.35.19-.44,1.62,3.42,4.13,9.9,5.51,13.21Z"/>
  <path class="cls-12" d="M19.19,6.93l.19-.44c-.03.1-.18.32-.19.44Z"/>
  <path class="cls-17" d="M71.14,28.4c.12.42.22.82.25,1.25-.71.16-1.44.38-2.18.7l-9.44,4.07.26.69-2.93-.55c-2.54-2.29-5.16-4.37-7.45-6.76,1.71.16,3.47.47,5.28.49l16.2.11Z"/>
  <path class="cls-6" d="M22.21,26.23c.06.02.19,0,.25.03.03.12.06.41.15.49l-2.27-.65.07-.33,1.8.45Z"/>
  <path class="cls-8" d="M23.68,27.43c-.14-.08-.42-.17-.58-.23l-.49-.44c-.1-.09-.12-.37-.15-.49.39.18.99.76,1.22,1.17Z"/>
  <path class="cls-6" d="M19.85,25.56c.02.07-.43.4-.5.26l-.36-.65.85.39Z"/>
  <path class="cls-8" d="M42.9,26.76l-.74-.19-.02-.15c.17.12.56.25.76.34Z"/>
  <path class="cls-3" d="M60.53,35.34c1.09.73,2.37,1.69,3.72,1.86.79.55,2.06,1.66,2.4,2.46.05.13.03.41.02.55-.05,1.81,2.27,4.39,2.26,6.3-3.05-3.65-3.87-6.17-7.67-9.62-.51-.46-.93-.99-1.25-1.51.06,0,.14.03.19.02.08-.01.25-.04.33-.06Z"/>
  <path class="cls-14" d="M60.2,35.4s-.12-.01-.19-.02l.02-.26.17.29Z"/>
  <path class="cls-21" d="M79.09,45.51c.03-.39.35-1,.59-1.26-.07.47-.26.94-.59,1.26Z"/>
  <path class="cls-2" d="M78.85,46.3l-.05-.42c.06-.06.2-.14.28-.19l-.23.61Z"/>
  <path class="cls-13" d="M71.39,29.65l.67,8.24-9.43-2.36c-.62-.15-1.6-.32-2.1-.19-.08.02-.25.05-.33.06l-.17-.29-.26-.69,9.44-4.07c.74-.32,1.47-.55,2.18-.7Z"/>
  <path class="cls-6" d="M72.3,42.1l-5.65-2.44c-.34-.8-1.6-1.91-2.4-2.46,2.5.31,4.9.82,7.54,1.38.53.88.66,2.64.51,3.52Z"/>
  <path class="cls-2" d="M78.47,47.29l.2-.39c-.03.1-.14.28-.2.39Z"/>
</svg>