<?xml version="1.0" encoding="UTF-8"?>
<svg id="Layer_1" xmlns="http://www.w3.org/2000/svg" version="1.1" viewBox="0 0 148.8 70.4">
  <!-- Generator: Adobe Illustrator 30.2.1, SVG Export Plug-In . SVG Version: 2.1.1 Build 1)  -->
  <defs>
    <style>
      .st0 {
        fill: #00e3b7;
      }

      .st1 {
        fill: #ff1bcd;
      }

      .st2 {
        fill: #ffed09;
      }
    </style>
  </defs>
  <g id="run">
    <g>
      <path class="st1" d="M89.3,42.6c-.7-.6-1.6-1.1-2.1-1.8,0,0-.3-.1-.4-.1-.5,0,1.3,2.5,1.4,2.7.3.5,1.3,1.1,1,1.8-.2.5-1.5,0-1.9,0h-.9c0,0-2.9-2.6-2.9-2.6,0,.2-.5.5-.7.5.1.2.3.3.5.4l1.9.9c.1,0,.3.3.2.4,0,0-.2.3-.3.3l-3,1.4c-.7.3-1.3.5-2,.9-.7.4-2.1.2-1.6-.1,0,0,.2-.1.2-.2l.6-1.7c.1-.4.3-.6.3-.9-1.2,2.1-2.2,4.3-3.3,6.5,0,.1-.5.3-.5.1.5-1.6,1-3.2,1.5-4.8,0-.2,1-1.5.6-1.9-.2-.3-2.1,4.1-2.7,4.5-.4-.6,0-1.1,0-1.7l1.5-12c-.6,0-.5.7-.7,1.1l-1.6,3.3-1.7,3.5c-.2-.2,0-1.4-.1-1.4h-.2c0,1.2,0,2.4-.2,3.6,0,.4,0,.9-.1,1.4-.2.8,0,1.8-.9,2.4v.3c0,0-.4,0-.5,0-.4-2-1.1-2.3-1.5-3.9,0,0-.1,0-.2,0-.3,0-.5-.6-.4-.9l-.2-.2s-.3.1-.2.2c.4.9,1.1,2.5,1.5,3.6,0,.2-.4.3-.5.2,0,0-.2-.3-.3-.4l-3.1-2-1.3-.8c-.9-.5-1.7-.8-2.6,0-1.3,1.1-1.9,0-2.3.7.4.1,1.4-.3,1.7.1.5.7,1,1.5,1.5,2.2l.8,1.4c.8,1.3,1.6,2.6,2.8,3.6,1,.8-1.4,2.1-1.3,2.1l-5.8,1.5c-.1,0-.4,0-.5.1,0,0,0,.4,0,.5l2.7,2.6c.3.3.9.4,1.2.6.6.4.9,0,1.3-.3l2.4-1.5c1-.6,1.9-1.2,2.8-1.8.7-.5.7,0,2,.9,1,.7,1.6,1.9,2.7,2.5.7.4,4.9,1.3,6.1,1.8,0,0,.4,0,.4-.1v-.3c-.1,0-.8-1.7-.8-1.7l-.9-2.4c-1.2-3.1-.5-2.5-1.2-2.3-1.2.3-2.5.6-3.6,1-.5.2-.8-.2-1-.6,0-.3-.1-.7,0-1,0-.2.5-.4.8-.5.9-.4,1.5-1.2,2.4-1.5.8-.3,1.5-.4,2.2-.8.8-.5,1.7-.8,2.6-1.2l3.4-1.6,3.4-1.5c1.1-.5,2.1-1.1,3.3-1.4.1,0,.3-.3.3-.4-.7-.2-1.6-2.3-2.2-3Z"/>
      <path class="st1" d="M49.5,51.2c-.8.5-1.4.2-1.9-.4v.5c-.7,0-1.2,0-1.9.2-.8.2-1.8,0-2.4.6-.3.3-.6.8-.8,1.2l-.9,1.6c-.4.7-.7,1.2-1.3,1.8-1.2,1.2-1.8.4-3.9.7,0,.7,1.6.7,1.1,1.6-.3.6-.3,1.1,0,1.7.1.3,0,.9.3,1.1l2.2,1.5,2,1.4c.5.3.8.8,1.4.8v-2.9s-.3-1-.3-1v-3.2c-.2-.1-.2-.1-.3-.2-.3-.2,1-.7,1.8-.5.6,0,1.1-.2,1.5-.2,1,0,1.7-.3,2.4-1.1.4-.5,1.1-.8,1.5-1.3l1.6-1.4c.4-.4.9-.6,1.2-1-1.7.1-1.1-.8-3.5-1.4Z"/>
      <path class="st1" d="M72.1,38.2c0,0-.1.3-.1.3.2.9,0,2.2.4,2.1.1-.6.2-1.7,0-2.3,0,0-.3-.2-.3-.1Z"/>
      <path class="st1" d="M72,34.7c-.3.4-.4,1,0,1.4.2-.5.2-1,0-1.4Z"/>
      <path class="st1" d="M68.3,43.5c-.1,0-.1.4,0,.5v-.5Z"/>
      <circle class="st1" cx="86.5" cy="40.5" r="0"/>
    </g>
    <g>
      <path class="st0" d="M2.1,22.3c0,0,.3,0,.3,0l.2-.2h-.3c0,0-.1.1-.2.2Z"/>
      <path class="st0" d="M.4,23c-.1,0-.3,0-.2.1,0,.1,0,.3,0,.4,0-.1.2-.4.2-.5Z"/>
      <path class="st0" d="M.5,22.9l.4-.3c-.2,0-.3,0-.4.3Z"/>
      <path class="st0" d="M-.1,24.8c0,0,.2.2.2.2v-.4s-.2.2-.2.2Z"/>
      <path class="st0" d="M.3,24.2h-.1s0,.2,0,.2h.2c0,0,0-.2,0-.2Z"/>
      <path class="st0" d="M136.1,43.7c.2-.2.6-.3.6-.4,0-.2,0-.6.1-.8l.3-2c.1-.7.2-1.1.2-1.8v-5.3c0-.7-.3-.8-.8-1l-12.3-4c-.3,0-.5-.2-.6-.5-.8,0-1.6-.4-2.4-.6l-3.4-.9-4.5-1.2-3.4-.9-3-.8c-3.3-.9-1.6-.4-4.6-3.2-.2-.2-.6-.3-.8-.5l-5.8-5.8h-11c-.2,0-.6-.3-.8-.3-.5.2-1,.3-1.6.4l-1.5.3-1.5.3-1.7.3-1.6.3-1.4.3-3,.7-1.8.2c-.8.1-1.5.2-2.4.3l-2.4.3-2.7.3-2.5.3c-.8,0-1.4.4-2.3.2-.4,0-.9.3-1.2.3-1-.4-2-.7-3.1-1l-3.5-1.1c-.5-.2-1.2-.3-1.7-.3-1,0-4.8-.6-4.4-.6h-2.2c-.6-.1-1.2-.4-1.9-.4-.7.1-1.3-.2-2-.3h-2.5c-.7-.1-1.2-.4-1.9-.3-.7,0-1.3,0-2-.3-.5-.2-1.2.2-1.7,0l-2.8-1.8c-.4-.2-1.1.2-1.5-.2l-2.1-2.1-.5-.8-2.7-2.8c-.2-.2-.1-.6-.4-.5-.3,0-.3.2-.4.5l-.9,3.6c-.2.6-.5,1.1-.3,1.7l1.1-3.9c0-.1,0-.4,0-.4,0,0,.3,0,.3,0l-.6,7.8-.2,2c-.9-3.2-1.5-2.3-.6-5.5-.4,0-.2.6-.4.8l-1.7,1.5c-.7.7-1.5,1.2-2.2,1.9-.5.5-1.2.8-1.6,1.4-.3.4-.8.7-1.3,1-.6.4-.9,1.2-1.6,1.4l-2.1.9-1.7.7c-.7.3-1.5.5-2,1,.4,0,1.1-.2,1.5-.4.8-.3,1.6-.3,2.2.3,1.1,1.2,2.5,1.3,4.1,1.3,1.2,0,2.4.4,3.7.3l8,3.3c.5.6,1.1.9,1.7,1.3l8.2,6.2,15.2,8.3c6.6,3.6,1.2,1.2,8.1,2.6.8.2,1.4,0,2.1.4.4.3,1.2-.2,1.6.1-1.7,0-3.3,0-5,.1-.8,0-1.4.2-2.2.3h-1.7c1.4,1,2.6,2.1,3.8,3.2-.3,1.1-.6,2.1-1.1,3,1-.6,2-1.4,2.8-2.4v-3.1c0-.3,0-.6-.3-.9h3.5c.2,0,.4-.2.5-.3.4-.6,1,.4,2.3-.7.9-.8,1.7-.5,2.6,0l1.3.8,3.1,2c.1,0,.3.3.3.4,0,0,.5,0,.5-.2-.4-1.1-1.1-2.7-1.5-3.6,0-.1.2-.2.2-.2l-.2-.6v.5c-.1-.2-.1-.4,0-.5l-1.9-3.9c-.3-.7-.4-1.1-1.2-1.4-.5-.2-1-.7-1.6-1.1.6,0,1.2.2,1.8.3l2.1.4,1.6.3c1,.2,1.9.4,2.9.5,0,0,0-.3.1-.3,0,0,.3,0,.3.1.1.6,0,1.7,0,2.3,0,.2.1.7.1.9h.2c.1.2,0,1.3.1,1.6l1.7-3.5,1.6-3.3c.2-.4.2-1,.7-1.1l-1.5,12c0,.6-.4,1.1,0,1.7.6-.4,2.5-4.8,2.7-4.5.3.5-.6,1.8-.6,1.9-.6,1.5-1.1,3.2-1.5,4.8,0,.1.4,0,.5-.1,1-2.2,2.1-4.4,3.3-6.5,0-.2.3-.4.3-.5.1-.5.3-1.4.7-1.8,1.2-1,3-2,4.4-3,.1,0,.2.4,0,.5-.4.4-.6.9-.9,1.4-.3.4-.7,1.1-.8,1.5l2.9,2.5h.9c.4.1,1.7.7,1.9.1.3-.7-.6-1.3-1-1.8-.1-.2-1.9-2.7-1.4-2.7,0,0,.3,0,.4.1.6.6,1.5,1.2,2.1,1.8.7.6,1.5,2.7,2.2,3,0-.4-1.1-3.1-1.4-3.5l-3.7-3.7,3.3-2.1,4.2-2.7c.6,0,.9-.8,1.5-.8,0-.7,2.3-1.9,3.1-2.3,1.1-.6,2.2-1.3,3.3-2.1.4.3,0,.8.1,1.1.2.6.2,1.3.4,2l.3,1.8.3,1.7.3,1.9c0,.4.3,1,.3,1.4,0,1.3.8,1.7,1.7,2.1l2.7,1,2.4.9,2.6,1,1.5.6,2.3.9,2.4.9c.8.3,1.7.6,2.5.9,1.2.6,2.2.6,3.6.3l6-1.2,6.3-1.3c0,0,.1,0,0-.2-.4,0-.8.1-1.3.3,0-.2-.2-.7,0-.8ZM19,6.9c0-.2,0-.4,0-.6,0,.2,0,.4,0,.6ZM72,36.2c-.4-.4-.3-1,0-1.4.2.4.2.9,0,1.4ZM86.5,40.5s0,0,0,0,0,0,0,0,0,0,0,0,0,0,0,0ZM135.8,43.9s0,0,0,0,0,0,0,0,0,0,0,0,0,0,0,0Z"/>
      <path class="st0" d="M49.9,50.9c-.9-.5-2-.5-2.7-1.2l-3.9-3.6c-.5-.4-1.3-1.2-1.7-1.7,0,.3.2.6.4.8.5.4.7.8,1.1,1.3l1.3,1.6,1.5,1.8c.4.5,1.2.7,1.8.9.5.6,1.1.9,1.9.4,2.4.6,1.8,1.6,3.5,1.4v-.3c-.2,0-.8-.4-1.1-.5-.7-.3-1.3-.6-2-.9Z"/>
      <path class="st0" d="M41.2,44.1c0,0-.2-.1-.3-.2l.3.2Z"/>
      <path class="st0" d="M39.1,42.9s.1,0,.1-.1h-.2c0,0,0,0,0,.1Z"/>
      <path class="st0" d="M37.3,41.7c0,0,.1,0,.2-.1,0,0-.2,0-.2,0,0,0,0,.2,0,.2Z"/>
      <path class="st0" d="M36.7,41.4s.1,0,.1-.1c0,0-.2,0-.2,0,0,0,0,.1,0,.2Z"/>
      <path class="st0" d="M38.3,42.2l-.2-.2c0,0,.2.1.2.2Z"/>
      <path class="st0" d="M35.9,40.7l-.2-.2c0,0,.2.1.2.2Z"/>
      <path class="st0" d="M.5,25.6s.1,0,.1-.1c0,0-.2,0-.2,0,0,0,0,.1,0,.2Z"/>
      <path class="st0" d="M69.1,45.2c0-.3-.2-.6-.4-.9,0,.3.2.8.4.9Z"/>
    </g>
    <g>
      <path class="st2" d="M57.9,45.6c-.7-.4-1.3-.3-2.1-.4-6.9-1.4-1.6,1-8.1-2.6l-15.2-8.3-8.2-6.2c-.6-.5-1.2-.7-1.7-1.3l-8-3.3c-1.3.1-2.5-.3-3.7-.3-1.6,0-2.9,0-4.1-1.3-.6-.6-1.4-.6-2.2-.3-.4.2-1.2.3-1.5.4h-.4c0,0-.2.3-.2.3,0,0-.2,0-.3,0l-1.2.4-.4.3h-.1c0,.3,0,.5-.2.6v.6h.1s0,.2,0,.2h-.2c0,0-.1.2-.1.2v.4s.3.3.3.3c0,0,.2,0,.2,0,1.4.9,3.9,2.9,5.4,3.5.9.4,1.9.1,2.7.4,1.3.4,2.7-.2,3.9.3,1.3.5,2.3,1.5,3.5,2.2,1,.5,1.8,1.2,2.7,1.8,1.2.8,2.4,1.2,3.7,1.6l3.5,1.2,2.4.9,3.4,1.2c1,.4,2.9,1.3,3.7,2l.2.2c.2,0,.5.3.7.4,0,0,.2,0,.2,0l.4.2c0,0,.2,0,.2,0,.2.1.5.4.7.5l.2.2c.2,0,.5.3.7.4h.2c.2.2.5.4.7.6l.3.2.6.4c0,0,.3.1.3.2.1,0,.3.2.4.3.4.5,1.2,1.2,1.7,1.7l3.9,3.6c.8.7,1.9.8,2.7,1.2.7.3,1.2.7,2,.9.4.1.9.5,1.3.5,0,0,0,0,0,0,.6-.9.8-1.9,1.1-3-1.3-1.1-2.4-2.2-3.8-3.1h1.7c.8-.2,1.4-.3,2.2-.4,1.7,0,3.3-.2,5-.1-.4-.3-1.2.1-1.6-.1Z"/>
      <path class="st2" d="M101.7,28.4c-1,.8-2.1,1.4-3.3,2.1-.7.4-3,1.6-3.1,2.3.6,0,.9-.5,1.4-.7l5.1-2.6c0-.3.3-.8-.1-1.1Z"/>
      <path class="st2" d="M72.3,40.6c-.3.2-.2-1.1-.4-2.1-1,0-1.9-.3-2.9-.5l-1.6-.3-2.1-.4c-.6-.1-1.2-.3-1.8-.3.6.3,1.1.8,1.6,1.1.8.4.9.7,1.2,1.4l1.9,3.9.2.6.2.2c.2.3.4.6.4.9,0,0,.1,0,.2,0h2.9c.2-1.2.2-2.5.2-3.8,0-.2-.1-.7-.1-.9Z"/>
      <path class="st2" d="M85,39.2c-1.5,1-3.3,1.9-4.4,3-.4.4-.6,1.3-.7,1.8.8,0,2.1-.7,2.8-.8.2,0,.6-.3.7-.5,0-.4.5-1.1.8-1.5.3-.5.5-1.1.9-1.4,0,0,0-.5,0-.5Z"/>
      <path class="st2" d="M18.3,14.9l.6-7.8c0-.1-.3-.1-.3,0,0,0,0,.3,0,.4l-1.1,3.9c-.9,3.2-.3,2.3.6,5.5l.2-2Z"/>
      <path class="st2" d="M19,6.3c0,.2,0,.4,0,.6,0-.2,0-.4,0-.6Z"/>
      <path class="st2" d="M148.7,34.9l-1.8-5.5c-.4,0-1-.4-1.4-.4h-3.8s-1-.3-1-.3h-4s-.8-.3-.8-.3h-4.3s-.8-.3-.8-.3h-4s-1-.3-1-.3c-.7-.2-1.5,0-2.1,0,.1.2.3.4.6.5l12.3,4c.6.2.9.3.9,1v5.3c0,.7-.2,1.2-.3,1.8l-.3,2c0,.2,0,.6-.1.8,0,.2-.5.3-.6.4-.1.2,0,.7,0,.8.5-.2.8-.3,1.3-.3.3-.5.9-.6,1.3-1l1.6-1.3,1.8-1.5,1.5-1.2,1.5-1.2c.5-.4,1-.8,1.6-1.2.5-.3.8-.9,1.4-1.2.2-.1.7-.4.6-.7Z"/>
      <circle class="st2" cx="135.8" cy="43.9" r="0"/>
    </g>
  </g>
</svg>