<?xml version="1.0" encoding="UTF-8"?>
<svg id="Layer_1" xmlns="http://www.w3.org/2000/svg" version="1.1" viewBox="0 0 148.8 70.4">
  <!-- Generator: Adobe Illustrator 30.2.1, SVG Export Plug-In . SVG Version: 2.1.1 Build 1)  -->
  <defs>
    <style>
      .st0 {
        fill: #00e3b7;
      }

      .st1 {
        fill: #ff1bcd;
      }

      .st2 {
        fill: #ffed09;
      }
    </style>
  </defs>
  <g id="survey">
    <g>
      <path class="st2" d="M36.2,37.6l-9.1-12.2-1-1.2-2.8-3.6c-.3-.4-.8-.6-.9-1.3l-7.9-1.6c-1-.2-2,0-3,.2-.6.1-1.4,0-2,.2-2.5.6-3.2-1.1-4.3-.9-.6,0-1.4.9-1.9,1h-.1c0,0-.2.2-.2.2-.7.4-1.6.8-2.1,1.4-.4.5-.3,1.7,0,2.2.2.4,1,.4,1.3.6,1,.5,1.9.9,2.9,1.3.9.3,1.8,1.1,2.9.9l2-.4c.5,0,1.3-.1,1.7-.3,1.1-.3,1.7-.2,2.8.2l6.9,2.8c.6.2,1,.7,1.4,1l1.2.9,2.3,1.6,1.2,1c.6.5,1.3.9,1.8,1.6.5.6,1.1.9,1.7,1.4l2,1.9c.5.5,1.1.8,1.6,1.3.7.7,1.8,1,2.7,1.2,0,0,0,0,0,0-.3-.4-.4-.9-.7-1.4Z"/>
      <path class="st2" d="M121.5,58.2s0,0-.1,0c0,0,0,0,.1,0Z"/>
      <path class="st2" d="M137.6,52.7c-.6-.5-1.1-1-1.6-1.5.4.5-4.5-3.9-3.9-3.6l-.7-.4-2.2-2.2-.7-.4-2.5-2.5-.7-.4-2.5-2.5-.8-.5c-.4-.3-1-.9-1.3-1.1,0,0-.2,0-.2,0,0,0,0,.3.1.4l6.4,8.8c.5.6.7,1.1,1.2,1.6l1.2,1.5c.5.7-.4,1.4-.8,1.9l-1.1,1.4c-.3.4-.6.8-.9,1.2l-1.3,1.9c0,.1-2.8,2.2-3.5,2.1.6.2,1.3.2,2,.2h12c1,0,1.1-.8,1.4-1.4.6-1.4,1.2-2.8.7-4.4Z"/>
      <path class="st2" d="M69.2,38.4l-4.1.5-2.3.3-4.3.6-3,.4-4.7.6v1.6s6.5,0,6.5,0l.9-.3h12.3c1.3-.5,2.6-.5,3.8-.9v-3.7c-1.5-.1-3.5.7-5.1.9Z"/>
      <path class="st2" d="M14.5,7.6c.3.7.7,1.4,1.2,2,.3.5.5,1,1,1.4-.1-1.9-.2-2.8-.3-4.5l-.2-2.3c0-.7-.2-1.3-.2-2,0-.5-.1-1-.4-1.4.2,0,.5-.2.5-.3,0-.1-.2-.3-.3-.4-.2,0-.4.2-.4.4v2.6s-.3,1-.3,1c-.3.8,0,1.7,0,2.5,0,.3-.2.7-.3,1Z"/>
      <path class="st2" d="M96.2,32.3c-.8.3-1.8.5-2.6.8-.6.2,0,1-.2,1.3,1-.2,1.9-1,2.8-1.2,0,0,0,0,0,0-.1-.2.1-.7-.1-.9Z"/>
    </g>
    <g>
      <path class="st0" d="M96.4,54.4c0,.2.1.4.3.5v-.3c0,0-.2,0-.3-.1Z"/>
      <path class="st0" d="M2.9,18.4c0,0,.2-.1.2-.2,0,0-.1,0-.1,0,0,0,0,0,0,.1Z"/>
      <path class="st0" d="M129.2,49.7l-1.2-1.5c-.5-.6-.7-1-1.2-1.6l-6.4-8.8c-.1-.2-.1-.4-.1-.4,0,0,.1,0,.2,0-.1-.1-.3-.4-.5-.5-.8-.5-1.5-1-2.3-1.5l-8.3-5.6-8-5.3-2.4-1.5-2.1-1.3c-.7-.4-1.1-1-1.5-1.7-.3-.7-.9-1.3-1.3-2-.2-.4-.4-1.1-.9-1.2l-2-.6-3.6-1-1.8-.5c-.8-.2-3.6-1-4.2-1h-16.4s-1.5.3-1.5.3c1.9-.4-10.9.2-9.6.3-.8,0-1.4-.2-2.2-.4l-3.3-1-2-.6c-.5-.1-1.2-.4-1.7-.4-.9,0-1.6-.2-2.4-.3-.8,0-1.5-.1-2.2-.3-1-.2-1.6-.7-2.4-1.2-2.2-1.2-4.3-2.2-6.6-3.3-.5-.2-1.2-.3-1.7-.5l-5.1-1.3c-.4-.1-2.2-.3-2.4.2-.4-.7-1-1-1.6-1.5l-1.1-.9-1.2-.9-1.4-1.1c-.4-.3-.6-.9-1.2-.8.1.1.3.3.3.4,0,0-.3.3-.5.3.3.4.4.9.4,1.4,0,.7.1,1.3.2,2l.2,2.3c.2,1.8.2,2.7.3,4.5-.5-.4-.6-.9-1-1.4-.4-.7-.8-1.3-1.2-2,0-.4.2-.7.3-1-.5.1-2.3,2.7-2.6,3.1l-1,1.1c-.4.4-.7.9-1.1,1.4l-1.2,1.5c-.7.9-1.2,1.7-2.2,2.1-1,.5-1.9,1.3-2.9,1.8-.3.1-.5.3-.6.6.5-.1,1.4-.9,1.9-1,1.1-.2,1.9,1.5,4.3.9.6-.2,1.4,0,2-.2,1-.2,2-.4,3-.2l7.9,1.6c.1.6.6.9.9,1.3l2.8,3.6,1,1.2,9.1,12.2c.3.4.4,1,.7,1.4.2.3.4.5.6.9l1,1.6.9,1.5.8,1.4c.2.4.5.8.8,1.2l.9,1.2c.4.5,2.2.6,2.5,1.6l1.6,6.3c0,.1.3.4.4.3,0,0,.2-.2.3-.3l2.3-5.8c.5-1.4,1-2.7,1.3-4.2.1-.6.3-1.2.2-1.8,0,0,0-.3,0-.3h.2c0,0,0-.1,0-.2v-1.6s4.7-.6,4.7-.6l3-.4,4.3-.6,2.3-.3,4.1-.5c1.6-.2,3.6-1,5.2-.9v3.7c-.1.6-.1,1.2-.1,1.9.7.4,1.3.8,1.9,1.2l2,1.4,2.1,1.5,1.9,1.3.9.7,2.3,1.6c.5.4.9.8,1.5,1,0-.9-.7-1.7-1.2-2.6l-1.4-2.7c-.3-.5-.4-1.2-.8-1.6-.1,0-.1-.6,0-.5,1.1.7,2.9,2.8,3.9,3.8,1.4,1.6,4.2,4.2,5.2,5.6.1.1.2.3.3.4,0,0,.4-.1.3-.3l-1.7-4.8c0,0,0-.3,0-.3.2-.2,1.3,2.3,1.2,2.1l2.3,4c.1.2.4.5.6.4l-2.2-6.7c.9,1.1,1.2,2.4,1.9,3.5,0-.3,0-.5-.3-.8l-2.9-5.7c-.1-.2.4-.6.2-1.1-.2-.7.2-1.4.2-2.1v-1.9c0-.5.5-1.1.3-1.7-.2-.8.2-1.2.3-2,0-.6.1-1.9.4-2.5.1-.3-.4-1.1.2-1.3.8-.3,1.7-.5,2.6-.8.2.2,0,.7.1.9.2.3.3,1,.5,1.4l1,3.4.5,1.9c.2.7.5,1.3.5,2.1l11.1,11.1c.6.6,1.6.7,2.3,1.1,1.6.8,3.7,1.6,5.3,2.4l1.8.8c.2.1.4.2.6.4l1.5.5c.5.4,3.6-2,3.7-2.1l1.3-1.9c.3-.4.6-.8.9-1.2l1.1-1.4c.4-.5,1.3-1.2.8-1.9Z"/>
      <path class="st0" d="M87,52.1l-.2-.2c0,0,.1.2.2.2Z"/>
    </g>
    <g>
      <path class="st1" d="M50.5,42.9c0,.7-.1,1.2-.2,1.8-.2,1.4-.7,2.8-1.3,4.2l-2.3,5.8c0,.1-.2.3-.3.3-.1,0-.4-.2-.4-.3l-1.6-6.3c-.3-1.1-2.1-1.2-2.5-1.6l-.9-1.2c-.3-.4-.6-.8-.8-1.2l-.8-1.4-.9-1.5-1-1.6c-.2-.4-.4-.6-.6-.9,0,0,0,0,0,0,.2.5.7,1.3,1,1.8l2.9,4.8c1.2.9,1.2,2.2.8,3.5-.2.6-.2,1.3-.3,1.9l-.3,1.7-.3,1.8-.3,1.9-.3,2.1-.3,2.1-.3,1.7c-.2,1.2-.1,2.5-1.1,3.4-.4.4-.7.8-1,1.2l-1,1.4c-.3.4-.9.6-.8,1.3.5-.1,1.1.3,1.6.3h5.2c.5-.5.3-1.2.5-1.9.1-.5.3-1,.3-1.6,0-1,.6-1.8,1-2.7l.7-1.7.9-2.4,1-2.8c.5-1.4,1-2.9,1.5-4.3l1-3.3c.4-1.3.8-2.5,1.1-3.8l.3-1.5c0-.5,0-1,.2-1.4h-.2c0,0,0,.3,0,.3Z"/>
      <path class="st1" d="M96.4,54.4c-.2-.8-.7-1.7-1.1-2.4-.7-1.1-1-2.4-1.9-3.5l2.2,6.7c-.3.1-.5-.1-.6-.4l-2.3-4c.1.2-1-2.3-1.2-2.1,0,0,0,.3,0,.3l1.7,4.8c0,.1-.3.3-.3.3,0,0-.2-.2-.3-.4-1-1.4-3.7-4-5.2-5.6-.9-1.1-2.8-3.1-3.9-3.8-.1,0-.1.4,0,.5.5.4.6,1.1.8,1.6l1.4,2.7c.5.9,1.2,1.7,1.2,2.6,0,0,0,0,0,0l.2.2c.5.2,1.1.9,1.4,1.4.7,1.2,2.1,1.1,2,3.7,0,.8,0,1.5-.3,2.2-.2.7,0,1.6,0,2.3l-.3,2.3c0,.5-3.5,4.8-4.1,5.6.3.2.8.4,1.2.4h4.8s1.5-4.5,1.5-4.5l1.2-3.3,1.3-3.7.8-1.9c.2-.4.3-1.2.3-1.7-.2,0-.3-.3-.3-.5Z"/>
      <path class="st1" d="M119.3,57.3l-1.8-.8c-1.6-.8-3.7-1.5-5.3-2.4-.7-.4-1.7-.4-2.3-1.1l-11.1-11.1c0-.8-.3-1.4-.5-2.1l-.5-1.9-1-3.4c-.1-.4-.3-1.1-.5-1.4,0,0,0,0,0,0l.5,1.7.9,3,.6,2c.2.7.4,1.3.5,2.1l11.3,11.2c.6.6,1.5.6,2.2,1,1.6.8,3.7,1.6,5.4,2.4l2.4,1.1c-.1-.2-.3-.3-.6-.4Z"/>
    </g>
  </g>
</svg>