<?xml version="1.0" encoding="UTF-8"?>
<svg id="Layer_1" data-name="Layer 1" xmlns="http://www.w3.org/2000/svg" viewBox="0 0 148.79 71.83">
  <defs>
    <style>
      .cls-1 {
        fill: #ad6d1f;
      }

      .cls-2 {
        fill: #c9bfac;
      }

      .cls-3 {
        fill: #cecabf;
      }

      .cls-4 {
        fill: #e3ded7;
      }

      .cls-5 {
        fill: #cbc8bd;
      }

      .cls-6 {
        fill: #c77b26;
      }

      .cls-7 {
        fill: #e39030;
      }

      .cls-8 {
        fill: #ee9a4c;
      }

      .cls-9 {
        fill: #b47021;
      }

      .cls-10 {
        fill: #f9f4eb;
      }

      .cls-11 {
        fill: #df8c36;
      }

      .cls-12 {
        fill: #ea9333;
      }

      .cls-13 {
        fill: #ec9535;
      }

      .cls-14 {
        fill: #e5943a;
      }

      .cls-15 {
        fill: #ece7df;
      }

      .cls-16 {
        fill: #d98730;
      }

      .cls-17 {
        fill: #cc8028;
      }

      .cls-18 {
        fill: #523917;
      }

      .cls-19 {
        fill: #b16f25;
      }

      .cls-20 {
        fill: #d3832b;
      }

      .cls-21 {
        fill: #e18d38;
      }

      .cls-22 {
        fill: #624421;
      }

      .cls-23 {
        fill: #d8862e;
      }

      .cls-24 {
        fill: #fafbf6;
      }

      .cls-25 {
        fill: #4c3512;
      }
    </style>
  </defs>
  <path class="cls-20" d="M22.26,11.16c1.61.52,4.73,1.44,6.54,1.71l16.03,9.51s.14.05.2.07l.44.17c.08.03.23.13.31.14l10.45,1.23,17.7,1.97,13.14.98.15.22,1,15.9c.02.29,0,.65-.01.95l-7.73-1.19c-.19-1.83-.29-3.71-.81-5.3l-1.5.15-.35-.23c-.13-.08-.34.33-.31.42-.13.03-.4.05-.53.03-.73-.11-2.17.12-3.05.13l-12.85.14-4.7.33c-.46.72-.12,1.64-.22,2.37l-.24,1.77c-.18,1.29-.45,2.54-.75,3.8-.73.98-1.18,2.14-1.43,3.33v.36c-.1.05-.3.34-.34.47l-.25.92c-.05.18-.33.49-.34.66l-.03.34-.33.05c-.08.01-.1.09-.07.15.04.07.2.18.18.25-.13.47-.53,1.35-.79,1.76-.78-.77-1.12-4.89-1.96-6.41l-4.64-8.4c-1.16-2.11-2.04-4.35-3.39-6.31-1.2-1.75-2.8-2.76-4.36-4.64-2.05-2.47-6.51-6.73-9.02-8.68-.12-.09-.4-.18-.54-.23-.03-.03-.03-.12-.03-.17v-.42c-1.01-.91-1.72-2.06-2.53-3.23l-2.77-4.04c-.19-.27-.57-.56-.83-.69.02-.08.02-.25.02-.33.14,0,.42-.03.55,0Z"/>
  <path class="cls-12" d="M87.86,13.76c-.02,1.74-1.26,3.82-.84,5.28-.08-.01-.23.02-.31.03-.74-.33-1.57-.05-2.44-.05h-7.37s-1.58.4-1.58.4c.27-.07-16.72.14-17.45-.02.5-1.7.28-3.53.27-5.31,1.19.45,2.85-.36,4.12-.36,2.91.02,5.57-.1,8.44-.13l14.57-.14c.95,0,1.78.19,2.6.31Z"/>
  <path class="cls-13" d="M58.14,14.08c.01,1.78.23,3.61-.27,5.31l-12.66-2.68c1.11.77-10.52-6.61-8.06-4.63-1.89-1.52-6.21-4.8-8.3-5.77l.11-1.48c2.64.38,5.33,1.08,7.92,2.03,2.9,1.07,5.38,2.83,8.21,4.04,1.88.8,4.05.4,6,.95,2.45.68,4.79,1.37,7.04,2.23Z"/>
  <path class="cls-3" d="M15.14,17.88h.96c.66.01,2.01-.02,2.65-.22.19-.06.61-.11.79-.05l2.14.68-1.21.27c2.03,1.62,3.86,3.29,6.03,4.79.29.2,5.74,3.23,6.08,2.65l8.47,11.09c.45.59.69,1.36,1.03,1.9-1.53-.39-2.67-1.28-3.94-2.39-3.88-3.42-7.54-7.06-12.16-9.58-2.38-1.3-5.21-3.27-7.67-3.01l-5.9.63c.57-.06-6.53-1.46-6.52-3.82,1.41.3,2.5,1.44,3.95,1.89,2.24.68,5.85.25,8.41-.27-1.69-1.42-3.2-2.72-4.95-3.74-.76-.44-1.75-.47-2.13-1.26.93.5,4.06,1.43,3.97.42Z"/>
  <path class="cls-9" d="M102.09,28.33c-.01.11-.06.33-.03.44l3.46,12.25,12.77,8.17,11.91,6.4c-2.85,2.45-2.03,1.98-5.13,1.9l-9.9-4.34-11.03-11.01-2.6-9.01c-.01-.29-.04-.68-.04-.96v-4.15c.06.01.13-.01.19-.02l.41.33Z"/>
  <path class="cls-25" d="M91.2,47.02c.3.46.69.85,1.15,1.15l5.4,5.77c.47.37.44.87.38,1.47l-.74,7.16c1.25-2.18,2.07-4.19,3.06-6.42.22-.49.92-.77,1.41-.84l-5.01,14.55c-1.97.16-3.95.18-5.93-.14l3.81-5.51c.28-.41,1.33-7.74.53-8.81s-1.76-2.5-2.84-3.27c-.76-2.28-2.16-4.31-3.15-6.51l.15-.39c.64.56,1.24,1.17,1.8,1.81Z"/>
  <path class="cls-18" d="M51.77,54.72c.25-.41.66-1.29.79-1.76l.21-.45.03-.34.26-.16c.05-.03.11-.21.11-.27l.23.16v.61c-.07.12-.21.34-.23.47-.14,1.12-.9,3.17-1.35,4.33l-3.2,8.34c-.48,1.24-.31,2.69-.71,4.13-2.3.31-4.68.37-7.15-.24l3.72-4.9c.65.04,1.32.02,2.03-.1.96-5.31,1.56-10.53,3.08-15.55.51,1.3,1.62,5.85,1.74,5.92l.3.19c.09.05.08-.28.14-.37Z"/>
  <path class="cls-19" d="M51.77,54.72c-.05.09-.05.42-.14.37l-.3-.19c-.11-.07-1.23-4.62-1.74-5.92-.04-.1-.02-.31-.05-.41-.19-.67-1.49-1.29-2.31-1.39-.24-.54-.96-1.45-1.33-2.03l-3.83-6.15c-.34-.54-.58-1.31-1.03-1.9l-8.47-11.09c-.2-.26-.49-.85-.77-1.02-.28-.62-.7-1.17-1.23-1.59-.16-.42-.63-.84-.94-1.18l-.19-.4c-.03-.07-.08-.04-.21-.03,0-.06,0-.14-.03-.17l-.62-.79s-.1-.11-.14-.16l-.03-.4c2.5,1.95,6.97,6.21,9.02,8.68,1.56,1.88,3.16,2.89,4.36,4.64,1.34,1.97,2.22,4.21,3.39,6.31l4.64,8.4c.84,1.52,1.18,5.64,1.96,6.41Z"/>
  <path class="cls-5" d="M79.67,37.52l-.17,3.67c-1.34.19-2.71.75-4.16.76l-11.26.13c-1.75.02-3.39.33-5.17.22-1.07-.07-2.09,0-2.99.32l.24-1.77,18.08-2.3c.99-.13,1.92-.4,2.74-.66.13.02.4,0,.53-.03.17-.04.49-.18.66-.19l1.5-.15Z"/>
  <path class="cls-13" d="M110.22,26.8c-.06.1-.31.35-.2.42l.6.37c.12.07.28.28.38.39l3.76,4.06,8.12,8.44-13.42-9.84c-1.57-1.54-3.51-2.69-5.25-4.19-.66-.56-1.33-1.02-2.06-1.29l-.28-2.12v-1.45s.19-.14.19-.14c2.28,1.37,6.31,3.76,8.16,5.34Z"/>
  <path class="cls-17" d="M21.67,10.93c.03.05.05.17.05.23,0,.08,0,.25-.02.33-.45,1.56-1.34,4.57-2.15,6.13-.19-.06-.61-.01-.79.05-.88-.3-1.83-.22-2.65.23h-.96s-1.87-.24-1.87-.24c.3-1.13.43-1.92.06-2.75,1.26-1.9,2.78-3.64,4.26-5.47.78-.96,1.46-1.91,2.36-2.63-.18,1.62.64,1.89,1.72,4.13Z"/>
  <path class="cls-13" d="M98.55,16.7c-.31,1.49.61,2.57-.41,3.91l-11.12-1.57c-.42-1.46.82-3.54.84-5.28.83.13,1.71.2,2.59.51,2.72.95,5.54,1.36,8.1,2.44Z"/>
  <path class="cls-10" d="M142.71,54.71l-.12.43c-.09.03-.25.17-.25.29l-.02.53c-.06.13-.15.4-.2.54-.17.31-.31.67-.4,1.02-.11.18-.43.49-.62.56-3.34-1.01-6.87-1.37-10.28-2.16l.18-.76.26-.4c.06,0,.22-.07.26-.17l.12-.27.38-.38c.83-.83,1.57-1.76,2.22-2.76,0-.06,0-.14,0-.19l.56-.64c.6.13,1.24.37,1.82.72l6.1,3.64Z"/>
  <path class="cls-14" d="M126.04,37.48l.25.19c0,.08-.01.16.02.2l7.85,11.31c-.65-.04-1.4-.75-1.95-1.2l-8.56-6.89c.37-.8.73-1.64,1.03-2.66l-11.9-9.46c-.6-.48-1.02-1.01-1.77-1-.1-.11-.27-.31-.38-.39l.16-.43c1.23.57,3.36,2.1,4.58,2.95l10.67,7.37Z"/>
  <path class="cls-24" d="M142.71,54.71l-6.1-3.64c-.59-.35-1.22-.58-1.82-.72-.05-.17-.14-.48-.2-.63s-.32-.4-.42-.54l-7.85-11.31c1.41.9,2.52,2.08,3.83,3.26l12.36,11.2c.63.57.39,1.75.21,2.38Z"/>
  <path class="cls-1" d="M88.21,44l.39.41c-.15.5.49.83.65,1.19,1,2.21,2.39,4.24,3.15,6.51l-12.7-9.05c-.4-.28-.24-1.42-.22-1.88l.17-3.67c.52,1.59.62,3.47.81,5.3l7.73,1.19Z"/>
  <path class="cls-15" d="M11.17,17.46c.38.79,1.37.82,2.13,1.26,1.75,1.02,3.26,2.32,4.95,3.74-2.56.52-6.17.95-8.41.27-1.45-.44-2.55-1.58-3.95-1.89v-.79c.86-.49,2.31-1.38,2.96-1.98.1-.09.37-.19.5-.22.31-.09.82-.33,1.06-.58.2.05.58.1.76.19Z"/>
  <path class="cls-25" d="M49.55,48.57c.03.1.01.32.05.41-1.52,5.01-2.12,10.24-3.08,15.55-.72.12-1.38.14-2.03.1l2.77-17.04c.78.28,1.55.61,2.29.98Z"/>
  <path class="cls-7" d="M28.97,4.84l-.11,1.48c-.35,2.23.65,3.9-.04,6.02L21.06.64c0-.14-.01-.41-.02-.57,1.21,1.01,3.85,2.72,4.95,3.84s1.79.76,2.98.93Z"/>
  <path class="cls-22" d="M98.32,51.34c.08.15.28.4.37.45l.58,1.15.19.43c0,.06-.02.14,0,.17.14.32.51.89.86,1.2-.13-.79-.33-1.37-.58-1.99-.21-.52-.49-1.46-.61-1.96-.03-.12-.15-.34-.21-.46-.17-.5-.39-1.52-.63-1.99l.08-.32c.61.98,3.74,6.56,3.48,7.3-.49.07-1.19.35-1.41.84-.99,2.23-1.8,4.24-3.06,6.42l.74-7.16c.06-.61.09-1.1-.38-1.47.8-.27-1.99-5.27-1.73-6.49.96,1.24,1.62,2.61,2.31,3.88Z"/>
  <path class="cls-17" d="M98.33,30.36l-.19,1.95c-.03.3.19.8.41,1.02.02.25.1.72.07.95-.43,2.75-1.17,8.17-1.19,10.95,0,1.04.58,2.19.94,2.77l-.08.32c-.34-.66-.65-1.33-.95-2.14s-1.29-.65-1.97-.61v-.61s.25-.18.25-.18c.07-.05.06-.35-.03-.35h-.35s-.17-.62-.17-.62c-.04-.14.4.07.51-.03.72-.64.91-2.69.83-2.69h-.41c.09-.3.11-.89.16-1.2l.48-.05c.09-.01.31-.29.23-.32l-.39-.13.27-2.46c.1-.04.34-.35.34-.5,0-.62.11-1.87.25-2.48.1-.04.36-.34.36-.49,0-.47.24-3.07.03-3.05l.6-.07ZM97.35,37.39c.02.2.19.62.24.5l.18-.5c.03-.08-.42-.09-.41,0Z"/>
  <path class="cls-3" d="M141.09,58.07c-.48.18-1.49.25-2.12.25l-10.76-.04-.37-.4,2.97-1.97c3.41.79,6.94,1.15,10.28,2.16Z"/>
  <path class="cls-2" d="M21.04.07c0,.15.03.43.02.57-.15,2.86.67,5.36.62,8.28l.21,1.26c.02.13.02.38.02.52l-.24.23c-1.08-2.24-1.9-2.51-1.72-4.13.22-1.95.39-3.92.49-5.98l.03-.7c0-.15.45-.14.57-.05Z"/>
  <path class="cls-11" d="M13.33,14.9c.37.83.24,1.62-.06,2.75l1.87.23c.09,1-3.04.08-3.97-.42-.17-.09-.56-.15-.76-.19l-1.06.58c-.13.04-.4.13-.5.22l-.29-.03c1.24-.67,3.41-2.39,4.77-3.14Z"/>
  <path class="cls-12" d="M100.08,18.9c.18.27.38.92.64,1.12,0,.06,0,.16-.01.23l-1.84.6c-.19-.07-.54-.21-.72-.24,1.02-1.34.1-2.42.41-3.91.73.31,1.12,1.58,1.53,2.2Z"/>
  <path class="cls-8" d="M130.99,55.15l-.18.76-2.97,1.97.37.4c-1.12.22-2.28-.04-3.15-.79,3.1.08,2.28.55,5.13-1.9.17-.15.58-.33.8-.44Z"/>
  <path class="cls-2" d="M101.48,32.17c0,.29.02.67.04.96l-2.91,1.15c.04-.24-.04-.7-.07-.95.66-.87,1.89-.9,2.94-1.16Z"/>
  <path class="cls-19" d="M54.37,48.96c-.13.22-.46.59-.64.8.25-1.2.7-2.35,1.43-3.33-.18.72-.4,1.88-.79,2.53Z"/>
  <path class="cls-22" d="M53.4,51.9l-.23-.16-.02-.23.25-.92s.29.1.3.02l.03-.5v-.36c.19-.21.52-.58.66-.8-.08,1.05-.35,2.09-.98,2.94Z"/>
  <path class="cls-3" d="M5.89,20.05c.21-.75,1.5-1.29,2.09-1.59.07-.04.17-.16.22-.22l.36-.2.29.03c-.66.6-2.1,1.49-2.96,1.98Z"/>
  <path class="cls-18" d="M49.55,48.57c-.74-.37-1.51-.7-2.29-.98.02-.1.03-.31-.02-.41.82.1,2.12.71,2.31,1.39Z"/>
  <path class="cls-17" d="M102.06,21.46l-.18.14c-.08-.04-.26-.12-.32-.19l-.85-1.16c0-.08.02-.18.01-.23.41.33.92,1.19,1.34,1.44Z"/>
  <path class="cls-6" d="M100.72,20.02c-.25-.2-.45-.85-.64-1.12.27.23.59.79.64,1.12Z"/>
  <path class="cls-8" d="M110.79,27.16l-.16.43-.6-.37c-.11-.07.13-.32.2-.42.13.11.41.29.57.36Z"/>
  <path class="cls-24" d="M141.71,57.51c.1-.35.23-.7.4-1.02-.09.3-.25.77-.4,1.02Z"/>
  <path class="cls-24" d="M142.31,55.95l.02-.53c0-.11.16-.26.25-.29-.03.28-.15.57-.28.82Z"/>
  <path class="cls-22" d="M53.17,52.98c.02-.13.16-.35.22-.47,0,.1.07.27.11.36s-.26.11-.33.11Z"/>
  <path class="cls-24" d="M126.29,37.67l-.25-.19.25.19Z"/>
  <path class="cls-11" d="M7.98,18.45c.06-.06.16-.18.22-.22-.06.06-.15.18-.22.22Z"/>
  <path class="cls-21" d="M57.87,19.4c.73.15,17.72-.05,17.45.02.23.62.66,1.16,1.28,1.55l7.68,4.83c-1.61.6-3.09,0-4.61-.11l-4.55-.34c-.47-.03-1.01.24-1.18.6l-17.7-1.97-10.45-1.23c-.38-1.97-.55-4.03-.56-6.03l12.66,2.68Z"/>
  <path class="cls-16" d="M98.57,27.41l-.04.57c-.35.36-.75.8-1.06,1.3l-8.02,12.75c-.34.55-.64.92-1.22,1.02l-1-15.9c3.99-.36,7.69.3,11.35.26Z"/>
  <path class="cls-21" d="M87.02,19.04l11.12,1.57c.19.03.53.17.72.24l.03,6.54c-.08-.02-.25.02-.33.02-3.66.04-7.35-.62-11.35-.26l-.15-.22-.36-7.86c.08-.01.24-.04.31-.03Z"/>
  <path class="cls-8" d="M37.15,12.09c2.05,2.94,4.4,5.69,6.71,8.55.47.59.98,1.02.97,1.74l-16.03-9.51v-.53c.69-2.12-.3-3.79.05-6.02,2.09.97,6.4,4.25,8.3,5.77Z"/>
  <path class="cls-23" d="M98.53,27.98l-.19,2.38-.6.07c.21-.02-.02,2.58-.03,3.05-.11.01-.16,0-.19.07-.05.09-.14.32-.17.42-.14.61-.25,1.85-.25,2.48-.1.05-.32.35-.34.5l-.27,2.46c-.09.07-.3.36-.32.5-.05.31-.07.9-.16,1.19-.22.65-.49,1.95-.43,2.7-.11.1-.55-.11-.51.03l.17.63c.04.14.14.38.14.52v.61c-2.04.11-4-1.22-6.39-1.12-.1,0-.28-.03-.38-.04l-.39-.41c0-.3.03-.66.01-.95.58-.1.88-.48,1.22-1.02l8.02-12.75c.32-.5.71-.93,1.06-1.3Z"/>
  <path class="cls-11" d="M86.71,19.07l.36,7.86-13.14-.98c.17-.36.72-.64,1.18-.6l4.55.34c1.52.11,3,.71,4.61.11l-7.68-4.83c-.62-.39-1.05-.93-1.28-1.55l1.58-.39h7.37c.88,0,1.7-.29,2.44.04Z"/>
  <path class="cls-6" d="M28.82,12.34v.53c-1.82-.26-4.94-1.19-6.55-1.71l-.36-.47c0-.14,0-.39-.02-.52l.22-.75c.06-.19-.23-.65-.43-.51.05-2.92-.76-5.42-.62-8.28l7.76,11.7Z"/>
  <path class="cls-19" d="M76.98,37.89c-.82.27-1.75.54-2.74.66l-18.08,2.3c.1-.73-.23-1.65.22-2.37l4.7-.33,12.85-.14c.88,0,2.31-.24,3.05-.13Z"/>
  <path class="cls-4" d="M22.11,18.3c.96.82,3.23.99,4.36.93.08,0,.24,0,.32.02.15.27.66.5,1.04.61,0,.05,0,.14.03.17l.57.63s.11.12.14.16c.15.3.37.58.62.79.02.03.02.1.03.17l.4.43c.31.33.78.75.94,1.18.26.69.6,1.2,1.23,1.59.28.17.57.76.77,1.02-.34.57-5.79-2.45-6.08-2.65-2.16-1.51-4-3.18-6.03-4.79l1.21-.27c.1-.02.31,0,.42.01Z"/>
  <path class="cls-11" d="M27.82,19.45l-1.03-.2c-.08-.01-.24-.02-.32-.02-1.42-.46-2.88-.77-4.36-.93-.11-.01-.32-.03-.42-.01l-2.14-.68c.82-1.56,1.71-4.57,2.15-6.13.27.14.65.42.83.69l2.77,4.04c.81,1.18,1.51,2.33,2.52,3.23Z"/>
  <path class="cls-16" d="M45.21,16.72c0,2.01.18,4.06.56,6.03-.08,0-.23-.11-.31-.14l-.44-.17c-.06-.02-.15-.05-.2-.07,0-.72-.5-1.15-.97-1.74-2.3-2.86-4.65-5.61-6.71-8.55-2.46-1.98,9.17,5.4,8.06,4.63Z"/>
  <path class="cls-3" d="M27.82,19.45v.42c-.38-.12-.89-.34-1.03-.61l1.03.2Z"/>
  <path class="cls-3" d="M28.41,20.27l.03.4-.57-.63c.15.06.43.14.54.23Z"/>
  <path class="cls-19" d="M53.15,51.51l.02.23c0,.06-.05.24-.11.27l-.26.16c.02-.18.3-.48.34-.66Z"/>
  <path class="cls-19" d="M78.16,37.66c-.17.02-.49.15-.66.19-.04-.09.18-.51.31-.42l.35.23Z"/>
  <path class="cls-21" d="M22.26,11.16c-.13-.04-.4-.01-.55,0,0-.06-.02-.17-.05-.23l.24-.23.36.47Z"/>
  <path class="cls-19" d="M52.77,52.51l-.21.45c.02-.07-.14-.19-.18-.25-.03-.06,0-.14.07-.15l.33-.05Z"/>
  <path class="cls-19" d="M53.72,50.12l-.03.5c0,.08-.26-.02-.3-.02.04-.14.24-.42.32-.47Z"/>
  <path class="cls-14" d="M45.46,22.62l-.44-.17.44.17Z"/>
  <path class="cls-11" d="M18.75,17.66c-.64.21-1.98.23-2.65.23.82-.45,1.77-.53,2.65-.23Z"/>
  <path class="cls-23" d="M123.04,40.83c.16.05.48.16.61.27l8.56,6.89c.56.45,1.3,1.16,1.95,1.2.1.14.35.38.42.54l-.36,1.27s0,.13,0,.19c-1.05.58-1.76,1.65-2.22,2.76l-.38.38c-.1.1-.3.32-.37.44l-.26.4c-.21.11-.62.29-.8.44l-11.91-6.4-10.08-13.1,14.84,4.75Z"/>
  <path class="cls-6" d="M108.2,36.09l10.08,13.1-12.77-8.17-3.46-12.25c2.08,2.35,4.2,4.81,6.14,7.33Z"/>
  <path class="cls-11" d="M109.47,30.64l13.42,9.84c.07.07.11.26.14.35l-14.84-4.75c-1.94-2.52-4.06-4.97-6.14-7.33-.03-.1.02-.32.03-.44,2.49.25,4.99,1.79,7.38,2.31Z"/>
  <path class="cls-7" d="M101.56,21.41c-.06.55-.23,1.44.31,1.64l.28,2.12-.48,2.83c-.07.01-.14.04-.19.02l-2.59-.63-.03-6.54,1.84-.6.85,1.16Z"/>
  <path class="cls-6" d="M98.9,27.39l2.59.63v4.15c-1.06.26-2.28.29-2.95,1.16-.21-.22-.43-.72-.41-1.02l.19-1.95.19-2.38.04-.57c.08,0,.25-.04.33-.02Z"/>
  <path class="cls-8" d="M109.47,30.64c-2.4-.52-4.89-2.07-7.38-2.31l-.41-.33.48-2.83c.74.27,1.41.73,2.06,1.29,1.74,1.5,3.69,2.64,5.25,4.19Z"/>
  <path class="cls-11" d="M95.36,45.57c.69-.04,1.68-.18,1.97.61s.61,1.48.95,2.14c.25.47.46,1.5.63,1.99.02.07-.15.18-.19.25-.04.06,0,.15.07.16l.33.05c.13.5.4,1.44.61,1.96l-.46.19-.58-1.15c-.03-.07-.06-.24-.08-.31-.03-.11-.18-.14-.29-.14-.69-1.27-1.35-2.64-2.31-3.88-.26,1.22,2.53,6.22,1.73,6.49l-5.4-5.77c-.37-.4-.57-.97-1.15-1.15-.56-.64-1.17-1.25-1.8-1.81l-.42-.76c2.39-.1,4.35,1.23,6.38,1.12Z"/>
  <path class="cls-6" d="M88.98,44.45l.42.76-.15.39c-.16-.36-.81-.69-.65-1.19.1.01.28.04.38.04Z"/>
  <path class="cls-6" d="M92.35,48.18c-.45-.3-.85-.7-1.15-1.15.57.19.77.75,1.15,1.15Z"/>
  <path class="cls-3" d="M31.81,24.99c-.63-.39-.97-.9-1.23-1.59.54.42.95.97,1.23,1.59Z"/>
  <path class="cls-3" d="M29.2,21.62c-.25-.21-.47-.49-.62-.79l.62.79Z"/>
  <path class="cls-3" d="M29.63,22.22l-.4-.43c.13-.01.17-.04.21.03l.19.4Z"/>
  <path class="cls-8" d="M123.65,41.1c-.13-.1-.45-.21-.61-.27-.03-.09-.08-.28-.14-.35l-8.12-8.44-3.76-4.06c.75-.01,1.17.52,1.77,1l11.9,9.46c-.3,1.02-.66,1.86-1.03,2.66Z"/>
  <path class="cls-12" d="M101.88,21.6v1.45c-.55-.19-.38-1.08-.32-1.64.06.08.24.15.32.19Z"/>
  <path class="cls-8" d="M134.21,51.18c-.64.99-1.38,1.92-2.22,2.76.45-1.11,1.16-2.18,2.22-2.76Z"/>
  <path class="cls-14" d="M134.78,50.36l-.56.64.36-1.27c.06.15.15.46.2.63Z"/>
  <path class="cls-8" d="M131.62,54.32l-.12.27c-.04.09-.19.17-.26.17.08-.12.27-.33.37-.44Z"/>
  <path class="cls-3" d="M10.41,17.27c-.24.25-.74.49-1.06.58l1.06-.58Z"/>
  <path class="cls-17" d="M99.46,53.54c.23-.08.23-.09,0-.17l-.19-.43.46-.19c.25.62.45,1.2.58,1.99-.35-.31-.72-.88-.86-1.2Z"/>
  <path class="cls-17" d="M99.12,50.78l-.33-.05c-.08-.01-.11-.1-.07-.16.04-.07.22-.18.19-.25.06.12.18.34.21.46Z"/>
  <path class="cls-17" d="M98.69,51.79c-.09-.05-.29-.3-.37-.45.11,0,.26.04.29.14.02.07.04.24.08.31Z"/>
  <path class="cls-11" d="M99.46,53.54s0-.11,0-.17c.23.08.23.09,0,.17Z"/>
  <path class="cls-20" d="M95.57,43.79c-.06-.75.21-2.05.43-2.7h.41c.08.02-.12,2.06-.83,2.7Z"/>
  <path class="cls-20" d="M95.36,44.97c0-.13-.1-.38-.14-.52h.35c.09-.01.1.29.03.34l-.24.18Z"/>
  <path class="cls-20" d="M96.48,39.39l.39.13c.09.03-.14.31-.23.32l-.48.05c.02-.15.23-.43.32-.5Z"/>
  <path class="cls-20" d="M97.35,37.39c0-.08.44-.07.41,0l-.18.5c-.04.12-.22-.3-.24-.5Z"/>
  <path class="cls-20" d="M97.71,33.48c0,.15-.26.45-.36.49.02-.1.12-.33.17-.42.03-.07.08-.06.19-.07Z"/>
  <path class="cls-20" d="M97.09,36.44c0,.15-.24.45-.34.5.02-.15.24-.44.34-.5Z"/>
  <path class="cls-21" d="M21.88,10.18l-.21-1.26c.2-.14.49.32.43.51l-.22.75Z"/>
  <path class="cls-3" d="M26.47,19.23c-1.13.06-3.4-.12-4.36-.93,1.48.16,2.95.48,4.36.93Z"/>
</svg>