<?xml version="1.0" encoding="UTF-8"?>
<svg id="Layer_1" data-name="Layer 1" xmlns="http://www.w3.org/2000/svg" viewBox="0 0 148.79 70.38">
  <defs>
    <style>
      .cls-1 {
        fill: #cdc5bb;
      }

      .cls-2 {
        fill: #e4dfd7;
      }

      .cls-3 {
        fill: #dd8c38;
      }

      .cls-4 {
        fill: #ca7c27;
      }

      .cls-5 {
        fill: #c37825;
      }

      .cls-6 {
        fill: #cfcbc0;
      }

      .cls-7 {
        fill: #b16e20;
      }

      .cls-8 {
        fill: #ee9a4c;
      }

      .cls-9 {
        fill: #49300e;
      }

      .cls-10 {
        fill: #e89232;
      }

      .cls-11 {
        fill: #fcfefb;
      }

      .cls-12 {
        fill: #e4903d;
      }

      .cls-13 {
        fill: #dd8a33;
      }

      .cls-14 {
        fill: #b5722c;
      }

      .cls-15 {
        fill: #da8830;
      }

      .cls-16 {
        fill: #412d0b;
      }

      .cls-17 {
        fill: #5d4325;
      }

      .cls-18 {
        fill: #e89647;
      }

      .cls-19 {
        fill: #b16f25;
      }

      .cls-20 {
        fill: #513716;
      }

      .cls-21 {
        fill: #e28f3a;
      }

      .cls-22 {
        fill: #ce8129;
      }

      .cls-23 {
        fill: #ede8e1;
      }

      .cls-24 {
        fill: #d4832c;
      }

      .cls-25 {
        fill: #ec9534;
      }
    </style>
  </defs>
  <path class="cls-24" d="M24.16,13.67h.25c0,.39.79.89,1.21,1.15l5.01,3.04,9.56,4.82c.24.12.75.19,1.03.24,8.87,1.49,17.97,1.62,26.92,2.61l14.45,1.59c.11.32.18.87.37,1.12-.89-.8-.08,6.51-.08,6.68l.1,4.8c.03,1.65.27,3.2.18,4.76l-5.17-4.73c-.29-.27-.96-.61-1.33-.61-.01-.01-.12-.13-.12-.15s-.11.14-.12.15h-.94s-.11-.16-.12-.15c0,.01-.11.14-.13.15l-1.73-.02c.82-.67-5.61-.39-5.92-.37l-18.42,1.34c-1.17.96-1.18,2.5-1.83,3.6s-1.34,2.11-1.77,3.31c-.05.06-.13.19-.19.24-1.05,1.01-3,3.24-3.6,4.57-.05.12-.26.28-.35.37-.11.11-.33.32-.4.45l-.97,1.68c-.1.06-.31.22-.43.22l-.76.05c-.05-.08,0-.29,0-.38-.07.07.33-.08.33-.18l.27-5.93c0-.17-.04-.53-.12-.51s-.22.03-.31.05c0-.04-.01-.11-.02-.15l-3.18-15.43-10.03-8.97c-.62-.56-1.17-1.05-1.85-1.33-.08,0-.24-.01-.31-.05-.18-.29-.43-.73-.64-.97-1.81-2.35-4.14-6.04-5.38-8.73,1.88.25,4.66,1.69,6.53,1.66Z"/>
  <path class="cls-10" d="M93.5,16.82l.53.8.21.17.4.39.18.36s-.28.27-.18.28c.11.02.35.05.41.13l.95,1.37s-.25.24-.16.27l.39.14.2.2.05.38c.06.41.2-.18.36-.14,1.93.46,5.9.67,7.87.93.27.11.76.22,1.07.22.92,0,1.81.08,2.71.21-.03-.08,0,.39.09.39h2.55c.91,0,1.81.06,2.71.21-.03-.09,0,.39.09.39l2.52-.02c.92,0,1.83.09,2.73.22-.03-.08,0,.38.09.38h2.55s1.1.03,1.1.03c.01.12,0,.17.07.19l.42.13c.08.02.24.02.32.04,0,.04.02.43.12.39l.52-.22.55.04s.02.44.11.39c.13-.06.38-.25.52-.23l1.93.24.05.31c.01.07.09.07.15.03.06-.04.18-.19.25-.17l1.16.21.06.35c.01.08-.32.16-.41.15l-6.55-.61c.07.92.24,1.84.56,2.64-.32.01-.9,0-1.19.06-.41-.24-.9-.38-1.48-.47l-12.99-2.08c-3.22-.52-6.43-.64-9.59-.8-.92-1.46-1.76-3.86-3.64-4.16-4.18-.66-8.34-1.68-12.68-1.96-2.07-.13-4.24.18-6.32.28l-6.14.3-6.73.27c-1.82.07-3.49.43-5.39.26-.66-.06-1.77.12-2.32.25-.19.05-.6.01-.8-.03l.16-5.26c5.2.08,10.06-.73,15.12-.62l.5-.25c2.84,0,3.24-.18,6.19-.1l8.02.24,10.02,2.88Z"/>
  <path class="cls-15" d="M93.9,26.19l.32.32c.15,1.68.7,3.3,1.05,4.95.2.92.42,1.71.74,2.57l.56,1.54s-.23,0-.23,0c0,0-.04.35,0,.5l1.83,7.44-5.16-.05c-.41,0-1.11.2-1.47.29-.16.04-.48-.06-.64-.04-.9-2.77-2.56-5.26-3.9-7.94l-3.25-6.49-.77-1.03c-.19-.25-.26-.8-.37-1.12l11.31-.93Z"/>
  <path class="cls-25" d="M53.65,14.67l-.16,5.26-12.89-2.87-7.97-3.96c-.06-.03-.35-.06-.39-.02s-.06.07-.11.15c-2.41-2.09-4.95-4.11-7.55-5.97.05-.34.31-.87.45-1.2,2.66.56,5.23,1.43,7.86,2.42s5.18,2.73,7.94,3.37c3.33.78,6.58.76,9.78,2.07.89.37,2.13.72,3.04.74Z"/>
  <path class="cls-6" d="M3.38,18.2c-1.17.97-2.21,1-2.37,1.86-.14.74,3.54,2.54,3.65,2.58,2.4.78,5.94.62,8.41.13-1.47-1.29-4.12-3.5-5.51-4.58h1.17c.6.01,1.39.01,1.97.02l3.72.02c1.86,0,3.74.76,5.25,1.51-.93-.06-2.67-.5-3.91-.73,1.07,1.55,5.4,5.38,6.9,6.06l3.52,1.61c.63.29,1.17.6,1.78.42.34.28.93.88,1.22,1.33l4.66,7.02c.61.91.71,1.77.99,2.71l-6.88-5.52c-3.38-2.72-10.37-6.47-14.49-8.09-1.6-.63-5.37.88-7.13,0l-5.4-2.73c-.61-.31-.41-2.03.07-2.43.58-.49,1.74-1,2.37-1.15Z"/>
  <path class="cls-20" d="M39.01,47.49s.02.11.02.15l-.18,6.58c0,.1-.04.3,0,.38l.36.62-6.13,8.25.57.19-.86,4.71c-.9-.1-1.66-.3-2.45-.3l-4.64-.02c1.37-2.22,3.22-3.79,4.27-6.1,2.39-5.26,4.38-10.59,7.28-15.5.56.39,1.14.74,1.75,1.03Z"/>
  <path class="cls-11" d="M147.94,27.11c-.26.29-.81.66-1.04.95-1.15.56-2.25,1.24-3.38,1.99l-5.24,3.48-.93-7.04-11.05-1.94c-.58-.1-1.09-.18-1.38-.61,1.81-.25,3.64-.18,5.56-.31l4.57-.31,4.94-.31c1.54-.1,3.08-.11,4.56-.38,1.1-.2,1.62.32,2.02,1.21.51,1.12,1,2.19,1.38,3.27Z"/>
  <path class="cls-7" d="M97.58,27.73c.34.59.88,1,1.48,1.49l7.77,6.42c.83.68,1.62,1.11,2.65,1,.15.18.7.73,1.06.78,4.81.62,9.33,3.6,14.17,3.64,4.55.04,8.67-2.98,13.06-3.48-.01.26.02.66.04.93l-12.76,4.41-17.85-4.69-5.5-2.76c-1.46-1.03-2.92-1.79-4.49-2.37-.03-.44-.09-.99-.08-1.43l.06-3.98c.09.05.3,0,.4.03Z"/>
  <path class="cls-1" d="M73.5,39.13l1.73.02h.25s.94,0,.94,0h.24c.37,0,1.04.34,1.33.6l-.04,2.15c-1.48,0-2.9-.02-4.26.39-.69.21-1.85-.12-2.58,0-.66.11-1.48.28-2.23.28l-11.07-.03-2.37.37c-2.19.34-4.55.11-6.71-.22.78-.41,2.52-.72,3.46-.17l-.51-.46,16.94-2.61c1.7-.26,3.26-.35,4.87-.33Z"/>
  <path class="cls-19" d="M39.01,47.49c-.61-.29-1.19-.64-1.75-1.03l-2.42-8.32c-.27-.94-.38-1.8-.99-2.71l-4.66-7.02c-.29-.44-.89-1.04-1.22-1.33-.14-.12-.31-.44-.41-.61-.65-1.09-1.52-2.04-2.42-2.96-.5-.51-.9-1.1-1.18-1.75.68.28,1.22.78,1.85,1.33l10.03,8.97,3.18,15.43Z"/>
  <path class="cls-4" d="M77.95,41.9l.5.62v2.37c.43-.14.87-.27,1.13-.43l1.25.48c-.32,2.57-1.08,7.07-1.21,9.44h-.22s-.19-1-.19-1c.17-.99.64-2.31-.17-3.01v-3.17c-.01-.51.28-1.01-.11-1.6l-.44,2.47-.27,3.73s-.02.12-.02.16c-.19,0-.35.14-.35.3l.03.76v.58c.02.07-.03.22-.05.29-.02.06-.08.15-.07.21-.74.01-1.36-.39-1.9-.91l-.61-.6c-.88-3.09-1.25-7.08-1.57-10.31,1.36-.41,2.79-.4,4.26-.39ZM78.95,45.18s-.02-.03-.03-.03-.03.02-.03.03.02.03.03.03.03-.02.03-.03Z"/>
  <path class="cls-22" d="M17.03,11.25c.12.49.08,1.06-.12,1.56l-1.78,4.49c-.42,1.06-3.56.11-4.43.89-.58,0-1.37,0-1.97,0-.85-1.1.68-1.78-.02-3.17-.02-.04,0-.11,0-.18l2.68-3.13c1.38-1.61,2.78-3.09,4.32-4.43-.23,2.12.43,1.63,1.32,3.97Z"/>
  <path class="cls-3" d="M96.57,35.57l3.82,7.72,4.13,7.2c.1.18-.29.36-.36.28l-.35-.39c-1.23-1.35-2.26-2.9-3.54-4.09-.55-.51-.43-1.89-1.65-1.93.37.93,1.06,1.69,1.52,2.46.86,1.43,1.76,2.88,2.42,4.4l-10.43-6.76-.64-.37.05-.35c.37-.09,1.06-.29,1.47-.29l5.16.05-1.83-7.44c-.04-.15,0-.5,0-.5,0,0,.19,0,.23,0Z"/>
  <path class="cls-16" d="M50.29,47.84l7.2,10.42c.74,1.07,1.41,2.06,2.27,2.87.16.6.81,1.18,1.05,1.72.85,1.95,1.89,3.69,2.94,5.78.28-.03.85-.45.98-.82-.04.81-.28,1.59-.83,2.57l-10.72-14.41c-1.38-1.86-3.31-5.64-4.39-7.55.44-.3.96-.49,1.49-.58Z"/>
  <path class="cls-7" d="M83.16,44.49l7.73-.79c.16-.02.48.08.64.04l-.05.35.38.43,3.98,4.74c.33.39.61.91.81,1.33l-13.95-5.29c-.69-.26-1.22-.75-1.88-.35l-1.25-.48c.34-.2.51-1.18.19-1.39s-.93-.45-1.32-.55l-.5-.62.04-2.15,5.17,4.73Z"/>
  <path class="cls-9" d="M102.55,51.22c.48,1.09.54,2.41.73,3.65l.69,4.68c.11.76-.13,1.51-.55,2.22l-1.88,3.13c-.24.4-.65.71-.99.98,0-1.38,1.42-2.58,1.33-4.04-.16-2.64-.39-5.58-1.35-8.03-.62-1.58-2.81-2.1-3.88-3.22-.2-.42-.48-.94-.81-1.33l-3.98-4.74.26-.06,10.43,6.76Z"/>
  <path class="cls-20" d="M79.01,51.81v1.6c0,.32.12.69.2,1.01l.18.7c-.09.66-.55,1.85-.85,2.58l-4.62,11.17c-1.05.77-4.67.23-5.91-.19,1.39-1.91,2.55-3.56,4.08-4.99.34-.31,1.21.08,1.61.02.45-.07.74-.72,1-1.34l3.13-7.44s0-.09,0-.13c.24.13.5-.29.46-.55-.03-.17-.32-.39-.47-.35.02-.07.07-.21.06-.29.1-.02.43-.02.41-.14s-.09-.36-.09-.48l-.02-1.03s.01-.12.02-.16h.79Z"/>
  <path class="cls-20" d="M100.55,65.88c.34-.27.75-.57.99-.98l1.88-3.13c.43-.71.67-1.46.55-2.22,1.05-1.32.6-6.7,2.43-8.09.14.29.24.61.2,1.01l-1.42,14.56c-1.94.71-3.66,1.03-5.67,1.1.2-.9.43-1.78,1.05-2.26Z"/>
  <path class="cls-17" d="M58.24,51.64s0,.1.01.14l.05.49c0,.08.28-.03.3-.03l3.45,9.56c1.19.43,2.94,1.19,3.67,1.86-1.62-.41-3.26-.8-4.92-.78-.24-.55-.89-1.13-1.05-1.72-.12-.45-.23-1.01-.44-1.52-1.61-3.9-3.33-7.67-4.59-11.6,1.46.86,2.16,3.06,3.51,3.61Z"/>
  <path class="cls-10" d="M20.62,3.54l.4.39.2.2.4.4.2.2.4.4c1.68,1.68,1.8.23,2.82.94-.14.33-.4.87-.45,1.2-.26,1.71-.15,4.8-.16,6.4h-.25S17.25,1.13,17.25,1.13l.03-.17c2.02,1.01,1.26,1.31,3.34,2.58Z"/>
  <path class="cls-2" d="M146.9,28.06c-2.28,2.88-5.56,5.61-7.77,8.09-.21.23-.55.8-.64.66l-.44-.68c-.01-.09-.06-.28-.06-.37v-1.33c.06.04.5-.26.39-.35-.14-.11-.39-.26-.59-.34-.11-2.26-.39-4.47-.76-6.98l-7.94-1.28-1.16-.21c-.08-.05-.33-.15-.45-.17l-1.93-.24c-.14-.05-.47-.15-.64-.16l-.55-.04-.63-.16c-.08-.02-.24-.01-.32-.04l.04-.16-.04-.16,1.51-.21c.29.42.8.5,1.38.61l11.05,1.94.93,7.04,5.24-3.48c1.13-.75,2.23-1.42,3.38-1.99Z"/>
  <path class="cls-17" d="M106.4,51.46c-1.83,1.39-1.38,6.77-2.43,8.09l-.69-4.68c-.18-1.24-.25-2.56-.73-3.65-.67-1.51-1.57-2.96-2.42-4.4l.13-.53c1.28,1.19,2.31,2.74,3.54,4.09l.35.39c.07.08.46-.11.36-.28l-4.13-7.2c1.32,1.47,5.27,6.65,6.02,8.17ZM104.88,51.32s-.02-.03-.03-.03-.03.02-.03.03.02.03.03.03.03-.02.03-.03Z"/>
  <path class="cls-16" d="M74.85,52.4l-.82,8.67c-.37.11-.36.8-.36,1.24l.03,1.4c-.4.06-1.27-.34-1.61-.02l1.23-8.95c.3-2.22.02-4.4-.18-6.52.63,1.15,1.84,2.78,1.71,4.18Z"/>
  <path class="cls-3" d="M48.74,42.7c2.16.33,4.52.56,6.71.22.76,2.38,2.26,6.49,2.8,8.72-1.35-.55-2.05-2.75-3.51-3.61-.1-.31-.44-.76-.65-1.02.03-.89.04-2.64-.95-3.1-1.54-.72-3.41-.62-5.01-.79.14-.12.45-.33.61-.41Z"/>
  <path class="cls-20" d="M65.73,63.64c.24.22.13,1.03.02,1.34l-1.01,2.83c-.13.37-.7.79-.98.82-1.05-2.09-2.09-3.83-2.94-5.78,1.66-.02,3.3.37,4.92.78Z"/>
  <path class="cls-1" d="M137.81,38.5c-.01-.27-.05-.67-.04-.93l.05-1.17s.23-.19.22-.27l.44.68c.09.14.43-.42.64-.66,2.21-2.48,5.49-5.22,7.77-8.09.23-.29.78-.66,1.04-.95.15.42.54.92.05,1.42l-4.94,5-3.32,3.6c-.59.64-1.18,1.12-1.91,1.38Z"/>
  <path class="cls-7" d="M73.69,42.3c.32,3.23.68,7.22,1.57,10.31-.08-.08-.3-.16-.41-.21.13-1.41-1.08-3.03-1.71-4.18l-2.03-5.93c.74-.12,1.89.21,2.58,0Z"/>
  <path class="cls-1" d="M17.28.96l-.03.17c-.19,1.03-.19,2.1-.19,3.17v.84c0,.09,0,.25,0,.34.03.32.17.93.17,1.25l.05,1.91v.46s0,.53,0,.53v.66c0,.15,0,.44-.02.58,0,.11-.17.29-.23.38-.89-2.34-1.55-1.85-1.32-3.97.24-2.28.58-4.49,1.02-6.9.22.16.39.5.55.58Z"/>
  <path class="cls-16" d="M39.79,55.37c-.23.52-.53,1.12-.93,1.62l-5.21,6.67-.57-.19,6.13-8.25.2-.03.37.18Z"/>
  <path class="cls-3" d="M8.73,18.19h-1.17c-.08-.07-.26-.16-.35-.21l-.45-.22s-.12.01-.15,0c0-.12,0-.16-.06-.2-.09-.05-.3-.16-.4-.18-.19-.04-.6-.1-.79-.03l.24-.56c.22-.1.54-.29.74-.42l.81-.51c.08-.05.3-.02.39-.05.07-.03.21-.18.23-.21.09-.05.28-.13.37-.19l.58-.38c.7,1.39-.84,2.08.02,3.17Z"/>
  <path class="cls-19" d="M47.33,43.7c.02.07.06.14.06.19l-.09.78-.6.47,1.64.94s.13,0,.17.02c.3.41,1.01.97,1.44,1.16l-1.17.96-1.74-1.49c-.18-.16-.73-.33-.91-.24s-.41.33-.57.52c.42-1.2,1.14-2.24,1.77-3.31Z"/>
  <path class="cls-1" d="M97.13,31.68c0,.43.05.98.08,1.43-.46.22-.88.54-1.21.93-.31-.86-.54-1.66-.74-2.57l1.86.21Z"/>
  <path class="cls-19" d="M42.57,51.58l-.8.24c.6-1.33,2.55-3.56,3.6-4.57-.75,1.54-1.84,2.9-2.8,4.33Z"/>
  <path class="cls-20" d="M42.57,51.58c-.63.94-1.65,2.68-2.36,3.43l.21-.47c.06-.13-.19-.19-.37-.22l.97-1.68.4-.45c.09-.1.3-.26.35-.37l.8-.24Z"/>
  <path class="cls-4" d="M111.13,22.92h-2.55c-.08,0-.12-.47-.09-.38.88.13,2.05-.41,2.64.38Z"/>
  <path class="cls-4" d="M116.45,23.5l-2.52.02c-.08,0-.12-.47-.09-.39.87.14,2.09-.46,2.61.37Z"/>
  <path class="cls-4" d="M121.82,24.11h-2.55c-.08,0-.12-.46-.09-.38.88.13,2.04-.41,2.64.38Z"/>
  <path class="cls-9" d="M40.21,55.01c-.09.1-.3.27-.42.36l-.37-.18.2-.64c.12,0,.32-.16.43-.22.18.02.42.08.37.22l-.21.47Z"/>
  <path class="cls-14" d="M5.36,17.35c-.4.13-1.13.43-1.51.58.47-.53,1.1-.85,1.75-1.14l-.24.56Z"/>
  <path class="cls-7" d="M79.62,54.39c-.01.19-.19.54-.22.72l-.18-.7.19-.03h.22Z"/>
  <path class="cls-4" d="M105.79,22.32c-.31,0-.8-.11-1.07-.22.18.02.55-.14.74-.15.14,0,.33.26.33.37Z"/>
  <path class="cls-14" d="M7.15,15.85l-.81.51.81-.51Z"/>
  <path class="cls-5" d="M94.03,17.62l-.53-.8c.23.07.43.62.53.8Z"/>
  <path class="cls-14" d="M8.71,14.84c0,.07-.02.14,0,.18l-.58.38c.17-.16.43-.39.58-.56Z"/>
  <path class="cls-5" d="M69.27,13.8l-.5.25.5-.25Z"/>
  <path class="cls-17" d="M50.27,47.29v.55c-.52.09-1.03.29-1.48.58-.03-.05-.02-.13-.01-.21l1.17-.96c.08.03.25.05.33.04Z"/>
  <path class="cls-5" d="M21.01,3.93l-.4-.39c.12.07.29.29.4.39Z"/>
  <path class="cls-5" d="M21.61,4.53l-.4-.4.4.4Z"/>
  <path class="cls-5" d="M22.2,5.12l-.4-.4.4.4Z"/>
  <path class="cls-4" d="M96.24,20.74l-.39-.14c-.09-.03.12-.24.16-.27.07.1.17.3.23.41Z"/>
  <path class="cls-3" d="M58.61,52.23s-.3.11-.3.03l-.05-.49c.06,0,.22.08.25.18l.1.28Z"/>
  <path class="cls-5" d="M94.64,18.18l-.4-.39.4.39Z"/>
  <path class="cls-5" d="M95.05,18.96c-.06-.08-.31-.11-.41-.13-.1-.01.14-.26.18-.28l.23.41Z"/>
  <path class="cls-4" d="M96.85,21.17c-.16-.04-.31.55-.36.14l-.05-.38.41.23Z"/>
  <path class="cls-18" d="M123.44,24.3l-.04.16-.42-.13c-.07-.02-.06-.07-.07-.19l.23-.03.3.2Z"/>
  <path class="cls-10" d="M123.44,24.3l-.3-.2c.06,0,.19.05.26.04l.04.16Z"/>
  <path class="cls-14" d="M3.6,18.21c-.08,0-.17-.02-.22,0,.07-.05.17-.18.22-.25v.26Z"/>
  <path class="cls-14" d="M7.54,15.8s.17-.18.23-.21c-.02.04-.16.19-.23.21Z"/>
  <path class="cls-6" d="M3.6,18.21v-.26c.08,0,.19,0,.25-.02l-.25.28Z"/>
  <path class="cls-21" d="M93.86,20.57l.05,5.63-11.31.93-14.45-1.59c-.45-.58-1.14-.82-1.91-1.08l-10.72-3.74c-.5-.17-.92-.43-1.24-.74.55-.13,1.66-.31,2.32-.25,1.9.18,3.56-.18,5.39-.26l6.73-.27,6.14-.3c2.08-.1,4.25-.41,6.32-.28,4.34.28,8.5,1.3,12.68,1.96Z"/>
  <path class="cls-12" d="M53.48,19.93c.19.04.6.08.8.03.31.31.74.57,1.24.74l10.72,3.74c.77.27,1.46.5,1.91,1.08-8.94-.99-18.05-1.12-26.92-2.61-.5-1.88-.55-3.9-.64-5.86l12.89,2.87Z"/>
  <path class="cls-8" d="M32.12,13.23c.87,1.3,2.07,2.33,3.15,3.55s2.07,2.36,3.22,3.5c.73.73,1.38,1.51,1.71,2.39l-9.56-4.82-5.01-3.04c-.43-.26-1.22-.76-1.21-1.15,0-1.6-.09-4.69.16-6.4,2.59,1.86,5.13,3.88,7.55,5.97Z"/>
  <path class="cls-4" d="M82.96,28.24l.77,1.03,3.25,6.49c1.34,2.68,3.01,5.17,3.9,7.94l-7.73.79c.09-1.56-.15-3.11-.18-4.76l-.1-4.8c0-.17-.81-7.48.08-6.68Z"/>
  <path class="cls-4" d="M24.16,13.67c-1.87.03-4.66-1.41-6.53-1.66-.08-.17.06-.61.05-.86-.01-.15-.22-.2-.42-.28.01-.15.02-.44.02-.58.12.01.42-.18.41-.33s-.3-.34-.42-.33v-.53s.38-.13.38-.13c.07-.02-.03-.3-.11-.3l-.26-.03-.05-1.91.26-.74c.07-.19-.23-.64-.43-.51,0-.09,0-.25,0-.34.19.12.49-.31.45-.52-.03-.16-.3-.33-.45-.32,0-1.07,0-2.14.19-3.17l6.91,12.54Z"/>
  <path class="cls-14" d="M73.5,39.13c-1.6-.02-3.17.07-4.87.33l-16.94,2.61.51.46c-.94-.55-2.68-.24-3.46.17-.16.09-.48.29-.61.41-.11.11-.16.44-.21.59l-.54.19s-.03-.12-.06-.19c.65-1.1.66-2.64,1.83-3.6l18.42-1.34c.31-.02,6.75-.31,5.92.37Z"/>
  <path class="cls-2" d="M19.68,19.72l.53.03c.32.51.99.49,1.69.74.5.18,1.29.96,1.75,1.22.07.04.23.04.31.05.28.65.68,1.25,1.18,1.75.54,1.17,1.33,2.28,2.42,2.96.1.16.27.49.41.61-.61.18-1.15-.13-1.78-.42l-3.52-1.61c-1.5-.68-5.83-4.51-6.9-6.06,1.24.23,2.97.67,3.91.73Z"/>
  <path class="cls-3" d="M17.63,12.01c1.23,2.69,3.57,6.38,5.38,8.73-.55-.65-2.05-.94-2.8-.99l-.53-.03c-1.52-.75-3.39-1.5-5.25-1.51l-3.72-.02c.87-.79,4.01.17,4.43-.89l1.78-4.49c.2-.5.24-1.08.12-1.56.06-.09.22-.27.23-.38.19.07.41.13.42.28.02.25-.12.68-.05.86Z"/>
  <path class="cls-13" d="M40.59,17.05c.08,1.96.13,3.98.64,5.86-.27-.05-.79-.12-1.03-.24-.32-.88-.97-1.67-1.71-2.39-1.15-1.14-2.15-2.29-3.22-3.5s-2.29-2.25-3.15-3.55c.05-.08.07-.11.11-.15s.33-.01.39.02l7.97,3.96Z"/>
  <path class="cls-19" d="M38.86,54.22l.18-6.58c.09-.01.23-.03.31-.05s.13.34.12.51l-.27,5.93c0,.11-.4.26-.33.18Z"/>
  <path class="cls-6" d="M23.01,20.74c.21.25.46.69.64.97-.46-.26-1.24-1.04-1.75-1.22-.71-.25-1.37-.23-1.69-.74.75.05,2.25.34,2.8.99Z"/>
  <polygon class="cls-19" points="39.62 54.55 39.42 55.19 39.22 55.23 38.86 54.6 39.62 54.55"/>
  <path class="cls-19" d="M41.42,52.2l-.4.45c.07-.13.29-.33.4-.45Z"/>
  <path class="cls-14" d="M76.66,39.15h-.24s.11-.17.12-.15.11.14.12.15Z"/>
  <path class="cls-14" d="M75.47,39.15h-.25s.12-.14.13-.15c0-.01.11.14.12.15Z"/>
  <path class="cls-21" d="M121.55,28.07l-12.64,2.26c-.44.08-.88.27-1.19.46l-10.13-3.07c-.09-.03-.31.02-.4-.03.01-.99.13-1.99.31-2.97,3.15.16,6.37.29,9.59.8l12.99,2.08c.57.09,1.07.23,1.48.47Z"/>
  <path class="cls-13" d="M122.74,28.01c.02.06.06.16.06.22l1.18,8.98c-.3,0-.72-.04-1-.02l-15.26-6.4c.31-.19.75-.38,1.19-.46l12.64-2.26c.29-.05.87-.05,1.19-.06Z"/>
  <path class="cls-18" d="M129.08,25.48l7.94,1.28c.37,2.5.65,4.72.76,6.98-4.88-2.07-9.94-3.87-14.98-5.5,0-.06-.04-.15-.06-.22-.32-.8-.49-1.72-.56-2.64l6.55.61c.09,0,.43-.07.41-.15l-.06-.35Z"/>
  <path class="cls-13" d="M97.5,24.73c-.17.98-.29,1.98-.31,2.97-.71-.38-2.13-.98-2.97-1.18l-.32-.32-.05-5.63c1.87.3,2.72,2.71,3.64,4.16Z"/>
  <path class="cls-18" d="M124.36,24.66l-.52.22c-.1.04-.12-.35-.12-.39l.63.16Z"/>
  <path class="cls-18" d="M125.54,24.86c-.14-.02-.39.18-.52.23-.1.04-.12-.36-.11-.39.16.01.5.11.64.16Z"/>
  <path class="cls-18" d="M127.92,25.26c-.07-.01-.19.14-.25.17-.06.03-.14.04-.15-.03l-.05-.31c.12.01.37.12.45.17Z"/>
  <path class="cls-4" d="M97.19,27.7l-.06,3.98-1.86-.21c-.35-1.65-.9-3.27-1.05-4.95.84.2,2.26.81,2.97,1.18Z"/>
  <path class="cls-23" d="M5.36,17.35c.19-.06.6,0,.79.03.07.08.32.28.46.38.03.02.12,0,.15,0l.12.41c.03.11.31-.15.33-.19.09.04.27.14.35.2,1.4,1.09,4.05,3.3,5.51,4.58-2.47.5-6.02.66-8.41-.13-.11-.03-3.79-1.84-3.65-2.58.16-.86,1.2-.89,2.37-1.86.06-.01.15,0,.22,0l.25-.28c.37-.15,1.11-.45,1.51-.58Z"/>
  <path class="cls-5" d="M137.79,33.95c.04.12.22.34.22.47v1.33c-.16.02-.46.1-.38.22.06.11.21.31.21.42l-.05,1.17c-4.4.5-8.51,3.52-13.06,3.48-4.84-.04-9.36-3.02-14.17-3.64-.37-.05-.92-.6-1.06-.78,1.35-.14,2.72.09,4.17.18l4.21.27c1.76.11,3.48.22,5.12.11.28-.02.71.01,1,.02,1.18.02,2.29-.31,3.5-.65l6.22-1.72c1.4-.39,2.72-.79,4.08-.89Z"/>
  <path class="cls-4" d="M107.72,30.79l15.26,6.4c-1.64.11-3.36,0-5.12-.11l-4.21-.27c-1.45-.09-2.82-.33-4.17-.18-1.03.11-1.82-.32-2.65-1l-7.77-6.42c-.59-.49-1.13-.9-1.48-1.49l10.13,3.07Z"/>
  <path class="cls-6" d="M27.56,26.47c-1.09-.68-1.89-1.79-2.42-2.96.9.91,1.77,1.87,2.42,2.96Z"/>
  <path class="cls-17" d="M75.25,52.61l.61.6c.43.82,1.04,1.57,1.97,1.73l-3.13,7.44c-.26.62-.55,1.27-1,1.34l-.03-1.4c.26-.33.32-.81.36-1.24l.82-8.67c.11.05.32.13.41.21Z"/>
  <path class="cls-1" d="M79.58,44.47c-.26.16-.7.29-1.13.43v-2.37c.39.11.99.34,1.32.55s.15,1.19-.19,1.39Z"/>
  <path class="cls-17" d="M79.04,50.39l-.03,1.42h-.79s.27-3.72.27-3.72c.02-.27.32-.82.54-.87v3.17Z"/>
  <path class="cls-7" d="M79.21,53.39l-.2.02v-1.6l.03-1.42c.8.7.34,2.01.17,3.01Z"/>
  <path class="cls-7" d="M79.04,47.21c-.23.05-.52.6-.54.87l.44-2.47c.39.59.1,1.09.1,1.6Z"/>
  <path class="cls-7" d="M77.76,54.11l.08.69s0,.1,0,.13c-.93-.16-1.54-.91-1.97-1.73.53.52,1.16.92,1.9.91Z"/>
  <path class="cls-17" d="M79.21,53.39l.19,1-.19.03c-.08-.32-.2-.69-.2-1.01l.2-.02Z"/>
  <path class="cls-7" d="M78.2,51.98l.02,1.03-.34.04-.03-.76c0-.16.15-.3.35-.3Z"/>
  <path class="cls-17" d="M78.22,53.01c0,.12.06.36.09.48s-.31.12-.41.14v-.58s.32-.04.32-.04Z"/>
  <path class="cls-17" d="M77.84,54.8l-.08-.69c0-.06.05-.15.07-.21.15-.04.44.18.47.35.04.26-.21.67-.46.55Z"/>
  <circle class="cls-7" cx="78.91" cy="45.18" r=".03"/>
  <path class="cls-19" d="M100.26,46.29l-.13.53c-.46-.77-1.14-1.53-1.52-2.46,1.22.04,1.09,1.42,1.65,1.93Z"/>
  <polygon class="cls-19" points="92.12 44.46 91.86 44.53 91.48 44.09 92.12 44.46"/>
  <path class="cls-20" d="M53.06,47.06l.13.39c.02.07.28-.05.28-.12l.02-.28.59-.05c.21.27.55.72.65,1.02,1.26,3.92,2.99,7.69,4.59,11.6.21.51.31,1.06.44,1.52-.87-.82-1.54-1.81-2.27-2.87l-7.2-10.42v-.55s.42-.09.42-.09c.1-.02.32.07.42.06l1.94-.2Z"/>
  <path class="cls-1" d="M138.01,34.42c0-.13-.18-.35-.22-.47-.02-.05,0-.15,0-.22.2.09.46.23.59.34.11.09-.32.39-.37.35Z"/>
  <path class="cls-18" d="M137.99,35.76c0,.09.05.28.06.37,0,.08-.18.25-.22.27,0-.1-.14-.31-.21-.42-.07-.12.23-.21.37-.22Z"/>
  <circle class="cls-3" cx="104.84" cy="51.32" r=".03"/>
  <path class="cls-9" d="M74.03,61.07c-.04.43-.1.91-.36,1.24,0-.43-.01-1.13.36-1.24Z"/>
  <path class="cls-1" d="M54.08,47l-.59.05h-.43s-1.94.2-1.94.2c-.42-1.02,1.17-.14,2.07-.77-1.88-1.1-3.49-2.02-5.28-2.79.05-.15.09-.48.21-.59,1.59.17,3.47.06,5.01.79.99.46.98,2.21.95,3.1Z"/>
  <path class="cls-3" d="M17.24,6.73c0-.31-.15-.93-.17-1.25.2-.13.5.32.43.51l-.26.74Z"/>
  <path class="cls-3" d="M17.06,5.14v-.84c.14-.01.41.16.45.32.04.21-.26.64-.45.52Z"/>
  <path class="cls-3" d="M17.28,10.29v-.66c.12-.01.41.17.41.33s-.3.34-.41.33Z"/>
  <path class="cls-3" d="M17.28,9.1v-.46s.27.03.27.03c.07,0,.18.28.11.3l-.37.13Z"/>
  <path class="cls-6" d="M6.61,17.76c-.14-.1-.38-.29-.46-.38.1.02.31.12.4.18.06.04.05.08.06.2Z"/>
  <path class="cls-6" d="M7.21,17.98s-.3.3-.33.19l-.12-.41.45.22Z"/>
  <path class="cls-6" d="M47.92,43.7c1.79.77,3.41,1.69,5.28,2.79-.9.63-2.49-.25-2.07.77-.11.01-.32-.08-.42-.06l-2.19-1.1s-.13,0-.17-.02l-1.05-1.41.09-.78.54-.19Z"/>
  <path class="cls-1" d="M50.7,47.2l-.43.09c-.08.02-.25,0-.33-.04-.43-.19-1.14-.75-1.44-1.16l2.19,1.1Z"/>
  <polygon class="cls-1" points="47.3 44.67 48.34 46.08 46.7 45.14 47.3 44.67"/>
  <path class="cls-21" d="M137.79,33.73c0,.06-.01.17,0,.22-1.37.11-2.68.51-4.08.89l-6.22,1.72c-1.21.33-2.32.67-3.5.65l-1.18-8.98c5.05,1.64,10.11,3.43,14.98,5.5Z"/>
  <path class="cls-17" d="M53.49,47.06l-.02.28c0,.07-.26.19-.28.12l-.13-.39h.43Z"/>
</svg>