<?xml version="1.0" encoding="UTF-8"?>
<svg id="Layer_1" xmlns="http://www.w3.org/2000/svg" version="1.1" viewBox="0 0 148.8 70.4">
  <!-- Generator: Adobe Illustrator 30.2.1, SVG Export Plug-In . SVG Version: 2.1.1 Build 1)  -->
  <defs>
    <style>
      .st0 {
        fill: #00e3b7;
      }

      .st1 {
        fill: #ff1bcd;
      }

      .st2 {
        fill: #ffed09;
      }
    </style>
  </defs>
  <g id="walk">
    <g>
      <path class="st2" d="M34.3,36.2l-5.4-8.1c-1.1-1.7-2.5-3.1-3.8-4.6l-1.4-1.7c-.3-.4-.7-1-1.1-1.3-.3-.3-7.9-2.1-8.2-2.1h-6.1c-.8.1-2.2-1.5-3.2-.9-1.1.6-2.1,1.2-3.2,1.6h-.4c0,.1-.2.3-.2.3h-.2c-.5.5-.7,2.3,0,2.7,0,0,.1,0,.2.1l.4.2h.2c0,.1.4.3.4.3h.2c0,0,.4.3.4.3h.2c0,.1.4.3.4.3h.2c0,0,.4.3.4.3h.2c0,0,.4.3.4.3h.2c0,0,.4.3.4.3h.2c0,.1.4.3.4.3h.2c0,0,.4.3.4.3,0,0,.1,0,.2.1h2.8s.1,0,.2,0c.1,0,.4-.2.6-.2h2.2s.1,0,.2,0l.2-.2c0,0,.2.2.2.2,0,0,.1,0,.2,0l.4.2s.1,0,.2,0c.2,0,.6,0,.7.2,0,0,.1,0,.2,0l.4.2h.2c0,0,.4.3.4.3h.2c0,0,.4.3.4.3h.2c0,0,.4.3.4.3h.2c0,0,.4.3.4.3h.2c0,0,.4.3.4.3h.2c0,0,.4.3.4.3h.2c0,0,.4.3.4.3,0,0,.1,0,.2.1.2,0,.6,0,.7.2,0,0,.1,0,.2,0l.4.2.5.4.4.2.5.4.4.2.5.4.4.2h.2c0,.1.4.3.4.3l.5.4.4.2.5.4.4.2.5.4.4.2.5.4.4.2.5.4.4.2,1.4,1.3c.1,0,.3.1.4.2l1.4,1.3c.1,0,.3.1.4.2l1.4,1.3c.1,0,.3.1.4.2.2.2.7.6.9.8.3-.1-.4-2.1-.4-2Z"/>
      <path class="st2" d="M148,26.8c-.8-1.2-1.1-2.8-2.1-3.9-.6-.7-2.2,0-2.9,0-1.3.1-2.6,0-3.8,0-.3,0-.7.3-1,.3h-3.8s-1,.3-1,.3h-3.8c-.3,0-.7.3-1,.3-1.2.1-2.4-.1-3.5,0-.7.1-1.2.2-1.8.3h-.2c0,.2,0,.3,0,.3,0,0,.3.1.3.1l5.2.8c1.2.2,2.3.4,3.5.6l1.9.3c.7.1,1.3.3,2,.2.5,0,1.1.2,1.2.7l.6,5.9c.1,1.1.3,2,.1,3.1,0,0,0,1.8,0,1.9h.4c1.2-.4,1.9-2.1,3-2.8.6-.4.8-1.1,1.2-1.5l5.6-5.7c.3-.3,0-1.2-.2-1.5Z"/>
      <path class="st2" d="M77,39.3h-4.4c-.7,0-1.5-.1-2.3,0l-21.1,3.2c-.3,0-.5.2-.6.4h6.7c.3,0,.7-.2,1-.2h13.5c.4,0,.8-.3,1.2-.3.6,0,1.3-.1,1.9,0,.5,0,.9-.2,1.3-.3,1.1-.2,2.3,0,3.5,0,0-1.2.5-2.7-.8-2.7ZM51.8,42.6c-.1,0-.5-.2-.4-.3.1-.2.5-.1.8,0-.2,0-.3.1-.4.2Z"/>
      <path class="st2" d="M97,32c-.4-.4-1.2-.4-1.7-.3-.1.8.1,1.5.4,2.1.5,0,1-.3,1.5-.6,0-.3,0-1-.2-1.2Z"/>
      <path class="st2" d="M53.1,44c-1.1-.5-2.6-.4-3.7-.5-.3,0-1-.4-1.2-.2-.5.6-1,1.3-1.5,1.9,1.1.6,2,1.4,3.1,2,.5.3,1.1,0,1.6.1.1,0,.4,0,.5,0v-.2s1.8,0,1.8,0h.2c.3-.4.1-.9-.1-1.4-.2-.4-.2-1.4-.7-1.6Z"/>
      <path class="st2" d="M17.1,7.5l-.3-6.1c-.3.1-.4.5-.4.8,0,.7-.2,1.2-.2,1.8,0,.8-.2,1.5-.3,2.3-.1.6,0,1.3-.4,1.9l1.7,3.3c0-1.4,0-2.6,0-3.9Z"/>
      <path class="st2" d="M78.7,42.7c0,.5,0,1.3.4,1.6.3.2,1-.5.8-.8-.3-.4-.8-.6-1.2-.8Z"/>
    </g>
    <g>
      <path class="st1" d="M100.5,43.5c.2.3.4.5.5.8,0-.3-.2-.7-.5-.8Z"/>
      <path class="st1" d="M101.7,45l.3.5c0-.2,0-.4-.3-.5Z"/>
      <path class="st1" d="M101.1,44.4l.3.3c0,0-.2-.2-.3-.3Z"/>
      <path class="st1" d="M71.4,43.5v-.3c0,0-.3.3-.3.3,0,0,.2,0,.3,0Z"/>
      <path class="st1" d="M65.5,63.4l-2.5-1.2c-.3-.2-1,0-1.1-.5-.3-1-.7-1.9-1-2.9l-1.3-3.7c.1.4-1.4-3.9-1.2-2.9-.3,0-.5-.2-.7-.5-.7-1-1.4-1.8-2.1-2.7-.6-.7-1.1-1.5-1.7-2h-.2c-.4.5-1.3.3-1.8.3-.1,0-.3,0-.5,0-1.1.4-1.5-.4-2.8,1,.2.5.5,1,.8,1.6l.9,1.5.9,1.6,1.2,2.1c.3.5.6.9.9,1.3l1.3,1.8,8.6,11.4c.2.2.6.9.8.5.4-.7.6-1.6.8-2.4.3-1.1.7-2.2,1.1-3.2.2-.5,0-.9-.4-1.2Z"/>
      <path class="st1" d="M43.6,49.1l-1.5,2.1c-.2.2-3.5,5.5-3.4,3.8l.2-6c0-1.8-.1-1.1-1.5-2.3-.2-.2-.3-.8-.4-1,.2.5,0,.9-.3,1.4l-3.4,6.9-.8,1.9-.9,2.1-.8,1.9c-.5,1.3-1,2.6-1.8,3.7l-2.9,3.8c-.2.3-.6.4-.6.8h5.9c.3,0,.7.5,1.1.3.3-.2.5-.8.5-1.2,0-.6.2-1,.3-1.5.2-.8,0-1.8.7-2.5.4-.4.7-.8,1.1-1.3l.9-1.2.9-1.2,1.2-1.5,2-2.6c1.6-2.2,3.1-4.5,4.6-6.8-.5,0-.7.2-1,.6Z"/>
      <path class="st1" d="M106.1,50.8l-3.3-4.3c-.3-.4-.5-.7-.9-.9,0,.3.5.9.6,1.2.5,1,1,1.8,1.5,2.7.3.5.5,1.4,1,1.9,0,0,.1.3,0,.3,0,0-.2,0-.3,0,0,0,0,0-.1-.1l-3.1-3.4c-.5-.5-.8-1.4-1.4-1.7,0,0-.2.2-.2.3.3.3.5.8.7,1.2.7,1.1,1.5,2.1,1.9,3.4-.7,0-1.1-.5-1.6-.9l-9.3-6.3c-.1,0-.3-.1-.3,0,0,0,0,.2,0,.2h.2c0,.1,3.8,4.7,3.8,4.7.5.6,1,1,1.2,1.7.5.2.9.6,1.3.9l1.2.9c.4.3.9.6,1.2,1,.5.7.5,1.6.6,2.4l.3,1.8c.1.7.4,1.3.2,2,.5,1.1.4,2.3,0,3.5l-.7,1.8-.9,2.1-.5,1.1c.8.2,1.5-.2,2.3-.2h1c.8-.1,1.6-.5,2.3-.9.3-.2,0-1,.2-1.3.2-.6.4-1.3.3-2,0-.7.2-1.3.3-1.9v-2.4c.1-.6.4-1.2.3-1.9,0-.7,0-1.2.2-1.8.3-.8-.2-1.8.1-2.6.4-.9.2-1.5-.4-2.3Z"/>
      <path class="st1" d="M78.9,49.8c0-.4-.1-.8-.4-1,0,.9-.2,1.6-.3,2.5v1.8c0-.1-.4,2-.5,2.1-.4.3-2.5-2.2-2.7-2.5-.6-1.3-1.1-2.7-1.6-4-.1-.3-.2-.5-.4-.7-.2.6.2,1.2.2,1.9.1,1.7,0,3.4,0,5.1,0,.5-.4.9-.3,1.4.2.6-.2,1.2-.2,1.8,0,.8-.2,1.4-.3,2.2-.1.8,0,1.5-.3,2.3-.1.3,0,.9-.3,1.2-.5.4-.8.9-1.2,1.4l-1.2,1.5c-.3.3-1.4,1.6-1.4,1.9,0,.7,1.6.3,2.2.5,3.1.8,1.7-.3,3.7,0,0-.5.2-1,.4-1.5l.7-1.7,2-4.8,1.3-3.3c.3-.7,1.1-1.7.9-2.5-.4-1.8-.5-3.6-.4-5.4Z"/>
      <path class="st1" d="M35.5,41c0,.3,0,.8.2,1,0-.3,0-.8-.2-1Z"/>
      <path class="st1" d="M36.1,43c0,.3,0,.8.2,1,0-.3,0-.8-.2-1Z"/>
      <path class="st1" d="M34.9,38.6c0,.3,0,.8.2,1,0-.3,0-.8-.2-1Z"/>
      <path class="st1" d="M35.2,39.8c0,.3,0,.8.2,1,0-.3,0-.8-.2-1Z"/>
      <path class="st1" d="M36.7,44.8c0,.2,0,.6.2.7,0-.2,0-.6-.2-.7Z"/>
      <path class="st1" d="M35.8,42.2c0,.2.1.6.2.7,0-.2-.1-.6-.2-.7Z"/>
      <path class="st1" d="M72.9,47.6v-.5c-.1,0-.2.2-.2.3,0,0,.2.2.2.3Z"/>
      <path class="st1" d="M72.4,46.4c0,0,.1.3.2.3l-.2-.3Z"/>
      <path class="st1" d="M72,45.3v-.3c0,0-.2.2-.2.2,0,0,.2,0,.2.1Z"/>
      <path class="st1" d="M71.7,44.4v-.3c0,0-.2.2-.2.2,0,0,.2,0,.2.1Z"/>
      <path class="st1" d="M78.9,47.3c0,.4,0,.8,0,1.2,0-.4,0-.8,0-1.2Z"/>
    </g>
    <g>
      <path class="st0" d="M1.1,19.4c-.8-.3-.6,1.7-.5,2.3,0,.2.4.3.5.2-.7-.4-.5-2.2,0-2.6Z"/>
      <path class="st0" d="M1.3,19.3h.2c0-.1-.1,0-.2,0Z"/>
      <path class="st0" d="M1.3,19.3h0s0,0,0,0Z"/>
      <path class="st0" d="M138,38.3c-.1,0,0-1.8,0-1.9.2-1.1,0-2-.1-3.1l-.6-5.9c0-.5-.7-.8-1.2-.7-.7,0-1.3-.1-2-.2l-1.9-.3c-1.2-.2-2.3-.5-3.5-.6l-5.2-.8c0,0-.3-.1-.3-.1,0,0,0-.1,0-.2h.2c-.2-.1-5-.7-4.6-.7h-1.8c1.7,0-5.1-.6-3.5-.6h-1.8c-.6,0-1.1-.4-1.8-.3-.6,0-1.1-.3-1.7-.3h-1.8c-.6,0-1.1-.4-1.8-.3-.6,0-1.1-.3-1.7-.3h-2.1c-.7,0-1.3-.4-2-.3-2.3.3-2.5-1.3-4.1-3.4-1.5-2-.5-1-1.6-1.4l-3.7-1.2-3.4-1c-.7-.2-1.5-.6-2.3-.7-2.8-.3-5.7.2-8.5-.2-.8,0-1.2-.3-2.1,0-1.1.4-2.5,0-3.7.1-.2,0-.6.3-.8.3h-4.5s-.8.3-.8.3h-4.2s-1,.3-1,.3h-4.5c-1.4,0-2.6-.7-3.9-1.1l-2-.6c-.5-.2-3.5-.7-3.6-.7h-1.5c-.6,0-1.2-.3-1.9-.4-.9-.2-1.7-.9-2.6-1.2-.9-.3-1.7-.7-2.6-1.1l-2.7-1.2c-2.3-1-5.6-1.8-8.1-2.7l-1,.3c-1.2-.5-1.9-1.6-2.9-2.4-.5-.5-1.2-.8-1.6-1.4-.4-.6-1-.9-1.6-1.3-.3-.2-.5-.5-.8-.6-.5,1.9-.3,1.6-.6,3.6-.1.6,0,1.4-.3,2-.1.3.2,1,0,1.2l-2.7,2.7c-.2.2-.3.6-.4.7-.8.9-1.8,1.7-2.5,2.6-1.5,1.9-1.4,1.8-3.4,2.9l-2.2,1.2c-.7.4-1.2.8-2,1.1-.2,0-.4.3-.5.5,1.1-.4,2.1-1,3.2-1.6,1-.5,2.4,1.1,3.2,1.1h6.1c.3-.1,7.9,1.7,8.2,1.9.4.3.8.9,1.1,1.3l1.4,1.7c1.3,1.5,2.7,2.9,3.8,4.6l5.4,8.1c0,0,.7,1.9.4,2,0,.1.2.3.2.4.2.2.3.7.2,1v.2c.2.2.4.7.3,1v.2c.2.2.4.7.3,1v.2c.2.2.3.5.3.7v.2c.2.2.4.7.3,1,0,0,0,.1,0,.2l.2.4s0,.1,0,.2c.1.1.2.5.2.7,0,0,0,.1,0,.2.2.2.2.8.4,1,1.4,1.2,1.5.5,1.5,2.3l-.2,6c0,1.7,3.2-3.6,3.4-3.8l1.5-2.1c.3-.4.5-.7,1-.6.4-.7,1.2-1.3,1.5-2.3l1.2.9c.4.3,1.1.8,1.3,1.2,1.3-1.5,1.7-.6,2.8-1-.5-.2-1.1.1-1.6-.1-1.1-.6-2-1.3-3.1-2,.5-.7.9-1.4,1.5-1.9.2-.2.9.2,1.2.2,1,.1,2.6,0,3.7.5.5.2.5,1.2.7,1.6.3.5.4,1,.1,1.4.7.6,1.1,1.3,1.7,2,.7.9,1.5,1.8,2.1,2.7.2.2.4.4.7.5-.2-.8-.5-1.7-.8-2.5l-2.3-6.7h-6.7c0-.3.3-.5.6-.5l21.1-3.2c.8-.1,1.6,0,2.3,0h4.4c1.2,0,.7,1.5.8,2.8-1.2.1-2.4-.1-3.5,0-.4,0-.8.4-1.3.3-.6-.1-1.3,0-1.9,0,0,.2.2.5.2.7v.3c.2.1.3.4.3.6v.3c.2.1.3.4.3.6v.3c.3.2.5.8.5,1.1l.2.3c0,0,.2.3.2.4v.5c0,0,.3.4.3.4.2.1.3.4.4.7.5,1.3.9,2.7,1.6,4,.2.3,2.3,2.8,2.7,2.5,0,0,.4-2.2.4-2.1v-1.8c.1-.8.3-1.5.4-2.5.3.2.4.6.4,1,0,1.9,0,3.7.4,5.4.3-.1.4-.6.3-.9-.2-.9,0-1.7.2-2.5l.3-2.1.3-2.1c0-.6.1-3.3,1.2-2.7.6.4,1.2.6,1.9.9l2.4.9,1.5.6,2.2.8,2.4.9,2.4.9c.8.3,1.5.6,2.2.8-.2-.6-.7-1.1-1.2-1.7l-3.8-4.5h-.2c0-.2,0-.3,0-.3,0,0,.2,0,.3,0l9.3,6.3c.6.4.9.8,1.6.9-.4-1.3-1.3-2.3-1.9-3.4-.2-.4-.4-.9-.7-1.2,0,0,0-.4.2-.3.6.3.9,1.2,1.4,1.7l3.1,3.4c0,0,.1.1.1.1,0,0,.2,0,.3,0,0,0,0-.3,0-.3-.4-.4-.6-1.3-1-1.9-.6-.9-1-1.7-1.5-2.7-.2-.3-.6-.9-.6-1.2,0,0,0,0,0-.1l-.3-.5s0,0,0,0l-.2-.2s0,0,0,0l-.3-.3s0-.1,0-.1c-.2-.2-.4-.5-.5-.8-.3-.5-.7-1.1-.9-1.7l-2.3-5c-.5-1.1-1-2.1-1.5-3.1-.3-.7-.5-1.3-.4-2.1.6,0,1.3,0,1.7.3.2.2.1.9.2,1.2,1.2.5,2.4,1.2,3.6,1.8l4.8,2.5c1.2.6,2.2,1.1,3.4,1.4l10.2,2.6,5.8,1.5c4.4-1.6,9-2.9,13.4-4.6h-.4ZM17.1,11.5l-1.7-3.3c.4-.6.3-1.3.4-1.9.1-.8.2-1.5.3-2.3,0-.6.3-1.2.2-1.8,0-.3.1-.6.4-.8l.3,6.1c0,1.3,0,2.5,0,3.9ZM78.9,48.5c0-.4,0-.8,0-1.2,0,.4,0,.8,0,1.2ZM79.1,44.3c-.4-.3-.5-1.1-.4-1.6.4.2.9.4,1.2.8.2.3-.6,1-.8.8Z"/>
      <path class="st0" d="M9.6,24.6h2.2c.2,0,.4-.1.6-.2h-2.2c-.2,0-.4.1-.6.2Z"/>
      <path class="st0" d="M9.4,24.7h-2.8c.3.3,2.5.3,2.8,0Z"/>
      <path class="st0" d="M13.7,24.7c.1.1.5.2.7.2-.1-.1-.5-.2-.7-.2Z"/>
      <path class="st0" d="M19.4,27.4c.1.1.5.2.7.2-.1-.1-.5-.2-.7-.2Z"/>
      <path class="st0" d="M30.2,34.4c0,0-.3-.2-.4-.2,0,0,.3.2.4.2Z"/>
      <path class="st0" d="M32,35.9c0,0-.3-.2-.4-.2,0,0,.3.2.4.2Z"/>
      <path class="st0" d="M33.8,37.4c0,0-.3-.2-.4-.2,0,0,.3.2.4.2Z"/>
      <path class="st0" d="M12.7,24.1l-.2.2h.4s-.2-.3-.2-.2Z"/>
      <path class="st0" d="M51.9,47.3c.5,0,1.4.2,1.8-.3h-1.8c0,0,0,.3,0,.3Z"/>
      <path class="st0" d="M51.4,42.4c0,.1.3.3.4.3.1,0,.3,0,.4-.2-.3-.2-.7-.3-.8,0Z"/>
    </g>
  </g>
</svg>